<svg id="Layer_2_00000078042713710032764770000000253226291658387639_" enable-background="new 0 0 512 512" viewBox="0 0 512 512" xmlns="http://www.w3.org/2000/svg" xmlns:xlink="http://www.w3.org/1999/xlink"><linearGradient id="_77_00000038373099877425127950000018060066961709395619_" gradientTransform="matrix(1 0 0 -1 0 512)" gradientUnits="userSpaceOnUse" x1="42.821" x2="469.179" y1="469.179" y2="42.821"><stop offset="0" stop-color="#454545"/><stop offset="1"/></linearGradient><g id="Icon"><path id="_77" d="m136.1 74.5c-2.2-3.1-3.3-7.2-3.3-12.3 0-4.9 1.1-9.1 3.3-12.5s4.9-5.2 8.1-5.2c3.6 0 6.5 1.5 8.6 4.5s3.2 7.7 3.2 14.1v9.5c-2.2 4.3-5.8 6.5-10.7 6.5-4 0-7-1.5-9.2-4.6zm304.9-49.5v462c0 13.8-11.2 25-25 25h-320c-13.8 0-25-11.2-25-25v-462c0-13.8 11.2-25 25-25h320c13.8 0 25 11.2 25 25zm-331.2 37.2c0 10.2 2.6 18.3 7.9 24.3 5.3 6.1 12.4 9.1 21.3 9.1 6.1 0 11.6-2.2 16.6-6.7-1.8 13.4-10.5 20.4-26.3 21.2l-4.3.1v18.4h1.4c10.6 0 19.8-2.2 27.7-6.5s14-10.5 18.3-18.5 6.4-17.5 6.4-28.4v-8.8c-.1-7.8-1.6-14.8-4.6-20.8-2.9-6-7.1-10.7-12.3-13.9-5.3-3.3-11.2-4.9-17.7-4.9s-12.3 1.6-17.6 4.8-9.5 7.5-12.4 12.9-4.4 11.3-4.4 17.7zm68.1 119.7c-3.7-3.9-8.9-6.2-14.3-6.2-.4 0-.8 0-1.2 0 4.2-10-.4-21.5-10.4-25.7-2.5-1.1-5.1-1.6-7.6-1.6s-5.1.5-7.6 1.6c-10 4.2-14.6 15.7-10.4 25.7-.4 0-.8 0-1.2 0-5.4 0-10.6 2.2-14.3 6.2-7.4 7.9-7 20.3.9 27.7s20.3 7 27.7-.9c-3.8 7-8.1 13.3-13.6 15.2v4.5h37.1v-4.4c-5.4-1.9-9.8-8.2-13.6-15.2 7.4 7.9 19.8 8.3 27.7.9s8.2-19.9.8-27.8zm213.4 167.5c-10.4-11.1-24.9-17.4-40.2-17.4-1.2 0-2.3 0-3.5.1 11.9-28.1-1.3-60.5-29.3-72.3-7-3-14.3-4.4-21.4-4.4-7.2 0-14.4 1.4-21.4 4.4-28.1 11.9-41.2 44.2-29.3 72.3-1.1-.1-2.3-.1-3.5-.1-15.2 0-29.7 6.3-40.1 17.4-20.9 22.2-19.8 57.1 2.4 78s57.1 19.8 78-2.4c-10.7 19.7-22.9 37.3-38.2 42.8v12.6h104.2v-12.6c-15.3-5.5-27.5-23.1-38.2-42.8 20.9 22.2 55.8 23.3 78 2.4s23.4-55.8 2.5-78z" fill="url(#_77_00000038373099877425127950000018060066961709395619_)"/></g></svg>