<svg id="Layer_2_00000029736030251384573820000017306457097642443965_" enable-background="new 0 0 512 512" viewBox="0 0 512 512" xmlns="http://www.w3.org/2000/svg" xmlns:xlink="http://www.w3.org/1999/xlink"><linearGradient id="_74_00000095326907412321837750000003142241952175161781_" gradientTransform="matrix(1 0 0 -1 0 512)" gradientUnits="userSpaceOnUse" x1="42.821" x2="469.179" y1="469.179" y2="42.821"><stop offset="0" stop-color="#454545"/><stop offset="1"/></linearGradient><g id="Icon"><path id="_74" d="m131.6 92.2v-6.9c1-2 2.5-3.8 4.6-5.2 2-1.4 4.6-2.1 7.6-2.1 3.9 0 7.1 1.5 9.5 4.6s3.6 7 3.6 11.9-1.2 8.6-3.5 11.8c-2.3 3.1-5.2 4.7-8.7 4.7-8.7-.1-13-6.3-13.1-18.8zm309.4-67.2v462c0 13.8-11.2 25-25 25h-320c-13.8 0-25-11.2-25-25v-462c0-13.8 11.2-25 25-25h320c13.8 0 25 11.2 25 25zm-332.3 64.6c.1 7.8 1.7 14.6 4.8 20.5s7.4 10.5 12.9 13.7 11.8 4.8 18.8 4.8c6.5 0 12.4-1.5 17.7-4.4 5.3-3 9.5-7.1 12.4-12.3 3-5.3 4.4-11 4.4-17.3 0-10.2-2.5-18.3-7.6-24.6-5.1-6.2-11.9-9.4-20.5-9.4-7.9 0-14.4 2.5-19.6 7.6 1.3-7.3 4.7-13 10.2-17.1s12.5-6.2 21.1-6.2h1v-18h-3.3c-9.9 0-18.9 2.3-27 6.9s-14.4 11-18.7 19.1c-4.4 8.1-6.6 17.3-6.6 27.5zm69.2 92.3c-3.7-3.9-8.9-6.2-14.3-6.2-.4 0-.8 0-1.2 0 4.2-10-.4-21.5-10.4-25.7-2.5-1.1-5.1-1.6-7.6-1.6s-5.1.5-7.6 1.6c-10 4.2-14.6 15.7-10.4 25.7-.4 0-.8 0-1.2 0-5.4 0-10.6 2.2-14.3 6.2-7.4 7.9-7 20.3.9 27.7s20.3 7 27.7-.9c-3.8 7-8.1 13.3-13.6 15.2v4.5h37.1v-4.4c-5.4-1.9-9.8-8.2-13.6-15.2 7.4 7.9 19.8 8.3 27.7.9s8.2-19.9.8-27.8zm213.4 167.5c-10.4-11.1-24.9-17.4-40.2-17.4-1.2 0-2.3 0-3.5.1 11.9-28.1-1.3-60.5-29.3-72.3-7-3-14.3-4.4-21.4-4.4-7.2 0-14.4 1.4-21.4 4.4-28.1 11.9-41.2 44.2-29.3 72.3-1.1-.1-2.3-.1-3.5-.1-15.2 0-29.7 6.3-40.1 17.4-20.9 22.2-19.8 57.1 2.4 78s57.1 19.8 78-2.4c-10.7 19.7-22.9 37.3-38.2 42.8v12.6h104.2v-12.6c-15.3-5.5-27.5-23.1-38.2-42.8 20.9 22.2 55.8 23.3 78 2.4s23.4-55.8 2.5-78z" fill="url(#_74_00000095326907412321837750000003142241952175161781_)"/></g></svg>