<svg id="Layer_2_00000092453333724569016780000012108198096633167527_" enable-background="new 0 0 512 512" viewBox="0 0 512 512" xmlns="http://www.w3.org/2000/svg" xmlns:xlink="http://www.w3.org/1999/xlink"><linearGradient id="_103_00000090998825173561399810000005430972868505889186_" gradientTransform="matrix(1 0 0 -1 0 512)" gradientUnits="userSpaceOnUse" x1="42.821" x2="469.179" y1="469.179" y2="42.821"><stop offset="0" stop-color="#454545"/><stop offset="1"/></linearGradient><g id="Icon"><path id="_103" d="m321.4 447.2c0 4.1.5 8 1.3 11.8h65.3v-65.3c-3.8-.8-7.8-1.3-11.8-1.3-30.2 0-54.8 24.6-54.8 54.8zm37.8-4.4c-1.4 0-2.9.1-4.4.2-3.2.1-6.4-.1-8.6-1.3-1.1-.6-2-1.5-2.7-2.6-3.9-5.9-.4-13.4 6.5-14.1.8-.1 1.6-.1 2.5 0-3.8-1.5-7.3-1.8-10.4-.3l-1.4-1.4 11.6-11.6 1.4 1.4c-1.4 3.1-1.2 6.6.3 10.4-.1-.8-.1-1.7 0-2.5.7-6.9 8.2-10.4 14.1-6.5 1.1.7 1.9 1.6 2.6 2.7 1.2 2.1 1.4 5.4 1.3 8.6 0 1.5-.1 3-.2 4.4-.1 4.3-.2 9.2.8 13.4-4.2-1-9.1-1-13.4-.8zm-168.6 4.4c0-30.2-24.6-54.8-54.8-54.8-4.1 0-8 .5-11.8 1.3v65.3h65.3c.9-3.8 1.3-7.8 1.3-11.8zm-28.6-22.2c6.9.7 10.4 8.2 6.5 14.1-.7 1.1-1.6 1.9-2.7 2.6-2.1 1.2-5.4 1.4-8.6 1.3-1.5 0-3-.1-4.4-.2-4.3-.1-9.2-.2-13.4.8 1-4.2 1-9.1.8-13.4-.1-1.4-.1-2.9-.2-4.4-.1-3.2.1-6.5 1.3-8.6.6-1.1 1.5-2 2.6-2.7 5.9-3.9 13.4-.4 14.1 6.5.1.8.1 1.6 0 2.5 1.5-3.8 1.8-7.3.3-10.4l1.4-1.4 11.6 11.6-1.4 1.4c-3.1-1.4-6.6-1.2-10.4.3.8-.1 1.7-.1 2.5 0zm38.6 22.2c0 4-.4 8-1.1 11.8h112.9c-.7-3.8-1.1-7.8-1.1-11.8 0-35.8 29-64.8 64.8-64.8 4 0 8 .4 11.8 1.1v-254.9c-3.8.7-7.8 1.1-11.8 1.1-35.8 0-64.8-29-64.8-64.8 0-4 .4-8 1.1-11.8h-112.9c.7 3.8 1.1 7.8 1.1 11.8 0 35.8-29 64.8-64.8 64.8-4 0-8-.4-11.8-1.1v254.9c3.8-.7 7.8-1.1 11.8-1.1 35.8 0 64.8 29 64.8 64.8zm-63.6-304.8c1.8.1 3.5.2 5.3.2 39.4 0 71.3-31.9 71.3-71.3 0-1.8-.1-3.6-.2-5.3h85.2c-.1 1.8-.2 3.5-.2 5.3 0 39.4 31.9 71.3 71.3 71.3 1.8 0 3.5-.1 5.3-.2v227.2c-1.8-.1-3.5-.2-5.3-.2-39.4 0-71.3 31.9-71.3 71.3 0 1.8.1 3.5.2 5.3h-85.2c.1-1.8.2-3.5.2-5.3 0-39.4-31.9-71.3-71.3-71.3-1.8 0-3.6.1-5.3.2zm86.5 293.6h65.1c2.4-41.1 35.4-74.1 76.5-76.5v-207c-41.1-2.4-74.1-35.4-76.5-76.5h-65.1c-2.4 41.1-35.4 74.1-76.5 76.5v207.1c41.1 2.3 74.1 35.3 76.5 76.4zm67.1-126.2c-1.3 4.7-5.6 9.5-10.3 13.9-2.2 2.1-4.4 4.1-6.5 6-6.3 5.9-13.3 12.8-17.8 20.1-4.6-7.3-11.6-14.3-17.8-20.1-2.1-2-4.2-3.9-6.5-6-4.6-4.4-9-9.2-10.3-13.9-.6-2.5-.7-5-.2-7.5 2.8-13.7 18.4-19.4 29.2-10.7 1.3 1 2.4 2.2 3.4 3.6-3.2-7.6-7.8-12.8-14.3-15.2v-4h32.9v4c-6.5 2.4-11 7.6-14.3 15.2 1-1.3 2.2-2.5 3.4-3.6 10.7-8.7 26.4-3 29.2 10.7.6 2.5.5 5-.1 7.5zm-47.1-53.8c0-6.9 5.6-12.5 12.5-12.5s12.5 5.6 12.5 12.5-5.6 12.5-12.5 12.5-12.5-5.6-12.5-12.5zm58.8-34.8c2.5-.5 5-.5 7.5.2 4.7 1.3 9.5 5.6 13.9 10.3 2.1 2.2 4.1 4.4 6 6.5 5.9 6.3 12.8 13.3 20.1 17.8-7.3 4.6-14.3 11.5-20.1 17.8-2 2.1-3.9 4.2-6 6.5-4.4 4.6-9.2 9-13.9 10.3-2.4.6-5 .7-7.5.2-13.7-2.8-19.4-18.4-10.7-29.2 1-1.3 2.2-2.4 3.6-3.5-7.6 3.2-12.8 7.8-15.2 14.3h-4v-32.9h4c2.4 6.5 7.6 11 15.2 14.3-1.3-1-2.5-2.2-3.6-3.4-8.7-10.7-3.1-26.4 10.7-29.2zm-80.9-19c1.3-4.7 5.6-9.5 10.3-13.9 2.2-2.1 4.4-4.1 6.5-6 6.3-5.9 13.3-12.8 17.8-20.1 4.6 7.3 11.5 14.3 17.8 20.1 2.1 2 4.2 3.9 6.5 6 4.6 4.4 9 9.2 10.3 13.9.6 2.4.7 5 .2 7.5-2.8 13.7-18.4 19.4-29.2 10.7-1.3-1.1-2.4-2.2-3.5-3.6 3.2 7.6 7.8 12.8 14.3 15.2v4h-32.9v-4c6.5-2.4 11-7.6 14.3-15.2-1 1.3-2.2 2.5-3.4 3.6-10.7 8.7-26.4 3.1-29.2-10.7-.5-2.5-.4-5 .2-7.5zm-33.1 78.1c-2.1-2.2-4.1-4.4-6-6.5-5.9-6.3-12.8-13.3-20.1-17.8 7.3-4.6 14.3-11.6 20.1-17.8 2-2.1 3.9-4.2 6-6.5 4.4-4.6 9.2-9 13.9-10.3 2.4-.6 5-.7 7.5-.2 13.7 2.8 19.4 18.4 10.7 29.2-1.1 1.3-2.2 2.4-3.6 3.4 7.6-3.2 12.8-7.8 15.2-14.3h4v32.9h-4c-2.4-6.5-7.6-11-15.2-14.3 1.3 1 2.5 2.2 3.6 3.5 8.7 10.7 3.1 26.4-10.7 29.2-2.5.5-5 .5-7.5-.2-4.7-1.3-9.5-5.7-13.9-10.3zm187.9-160.7c4.1 0 8-.5 11.8-1.3v-65.3h-65.3c-.8 3.8-1.3 7.8-1.3 11.8 0 30.2 24.6 54.8 54.8 54.8zm-26.2-32.6c-6.9-.7-10.4-8.2-6.5-14.1.7-1.1 1.6-1.9 2.7-2.6 2.1-1.2 5.4-1.4 8.6-1.3 1.5.1 3 .1 4.4.2 4.3.2 9.2.2 13.4-.8-1 4.2-1 9.1-.8 13.4 0 1.4.1 2.9.2 4.4.1 3.2-.1 6.4-1.3 8.6-.6 1.1-1.5 2-2.6 2.7-5.9 3.9-13.4.3-14.1-6.5-.1-.8-.1-1.7 0-2.5-1.5 3.8-1.8 7.3-.3 10.4l-1.4 1.4-11.6-11.6 1.4-1.4c3.1 1.4 6.6 1.2 10.4-.3-.8.1-1.6.1-2.5 0zm-249 395h310v-452h-310zm13-429c0-5.5 4.5-10 10-10h264c5.5 0 10 4.5 10 10v406c0 5.5-4.5 10-10 10h-264c-5.5 0-10-4.5-10-10zm302-53h-320c-13.8 0-25 11.2-25 25v462c0 13.8 11.2 25 25 25h320c13.8 0 25-11.2 25-25v-462c0-13.8-11.2-25-25-25zm5 482c0 5.5-4.5 10-10 10h-310c-5.5 0-10-4.5-10-10v-452c0-5.5 4.5-10 10-10h310c5.5 0 10 4.5 10 10zm-230.4-417.2c0-4.1-.5-8-1.3-11.8h-65.3v65.3c3.8.8 7.8 1.3 11.8 1.3 30.2 0 54.8-24.6 54.8-54.8zm-37.8 4.4c1.4-.1 2.9-.1 4.4-.2 3.2-.1 6.4.1 8.6 1.3 1.1.6 2 1.5 2.7 2.6 3.9 5.8.4 13.4-6.5 14.1-.8.1-1.6.1-2.5 0 3.8 1.5 7.3 1.8 10.4.3l1.4 1.4-11.6 11.6-1.4-1.4c1.4-3.1 1.2-6.6-.3-10.4.1.8.1 1.7 0 2.5-.7 6.9-8.2 10.4-14.1 6.5-1.1-.7-1.9-1.6-2.6-2.7-1.2-2.1-1.4-5.4-1.3-8.6 0-1.5.1-3 .2-4.4.1-4.3.2-9.2-.8-13.4 4.2 1 9.1 1 13.4.8z" fill="url(#_103_00000090998825173561399810000005430972868505889186_)"/></g></svg>