<svg id="Layer_2_00000065777846209232921470000012312624996797526446_" enable-background="new 0 0 512 512" viewBox="0 0 512 512" xmlns="http://www.w3.org/2000/svg" xmlns:xlink="http://www.w3.org/1999/xlink"><linearGradient id="_58_00000042706131243619902060000004875016571040250263_" gradientTransform="matrix(1 0 0 -1 0 512)" gradientUnits="userSpaceOnUse" x1="42.821" x2="469.179" y1="469.179" y2="42.821"><stop offset="0" stop-color="#fe5b42"/><stop offset="1" stop-color="#ba0000"/></linearGradient><g id="Icon"><path id="_58" d="m131.6 92.2v-6.9c1-2 2.5-3.8 4.6-5.2 2-1.4 4.6-2.1 7.6-2.1 3.9 0 7.1 1.5 9.5 4.6s3.6 7 3.6 11.9-1.2 8.6-3.5 11.8c-2.3 3.1-5.2 4.7-8.7 4.7-8.7-.1-13-6.3-13.1-18.8zm309.4-67.2v462c0 13.8-11.2 25-25 25h-320c-13.8 0-25-11.2-25-25v-462c0-13.8 11.2-25 25-25h320c13.8 0 25 11.2 25 25zm-332.3 64.6c.1 7.8 1.7 14.6 4.8 20.5s7.4 10.5 12.9 13.7 11.8 4.8 18.8 4.8c6.5 0 12.4-1.5 17.7-4.4 5.3-3 9.5-7.1 12.4-12.3 3-5.3 4.4-11 4.4-17.3 0-10.2-2.5-18.3-7.6-24.6-5.1-6.2-11.9-9.4-20.5-9.4-7.9 0-14.4 2.5-19.6 7.6 1.3-7.3 4.7-13 10.2-17.1s12.5-6.2 21.1-6.2h1v-18h-3.3c-9.9 0-18.9 2.3-27 6.9s-14.4 11-18.7 19.1c-4.4 8.1-6.6 17.3-6.6 27.5zm75.2 80.2c-3.2-15.7-21-22.1-33.2-12.2-2.6 2.2-4.8 4.8-6.4 7.8-1.6-3-3.8-5.6-6.4-7.8-12.2-9.9-30-3.5-33.2 12.2-.6 2.8-.5 5.7.2 8.5 1.5 5.4 6.4 10.9 11.7 15.9 2.5 2.4 5 4.6 7.4 6.9 7.5 7 14.8 14.3 20.3 23 5.5-8.6 12.8-16 20.3-23 2.4-2.2 4.8-4.5 7.4-6.9 5.3-5 10.2-10.5 11.7-15.9.7-2.7.8-5.7.2-8.5zm224.3 145.6c-9-44.1-59-62.2-93.4-34.3-7.3 6.1-13.4 13.5-18 21.9-4.6-8.4-10.7-15.8-18-21.9-34.4-28-84.4-9.9-93.4 34.3-1.7 7.9-1.5 16.2.6 24 4.1 15.2 18 30.6 33 44.7 7.1 6.8 14 13 20.7 19.3 21 19.6 41.6 40.2 57.2 64.6 15.5-24.3 36.1-45 57.1-64.6 6.7-6.3 13.6-12.6 20.7-19.3 14.9-14.1 28.8-29.5 33-44.7 2.1-7.9 2.2-16.1.5-24z" fill="url(#_58_00000042706131243619902060000004875016571040250263_)"/></g></svg>