<svg id="Layer_2_00000137820859109754194790000003317309628402077881_" enable-background="new 0 0 512 512" viewBox="0 0 512 512" xmlns="http://www.w3.org/2000/svg" xmlns:xlink="http://www.w3.org/1999/xlink"><linearGradient id="_52_00000046298112633126507160000012305081904129965962_" gradientTransform="matrix(1 0 0 -1 0 512)" gradientUnits="userSpaceOnUse" x1="42.821" x2="469.179" y1="469.179" y2="42.821"><stop offset="0" stop-color="#454545"/><stop offset="1"/></linearGradient><g id="Icon"><path id="_52" d="m299.1 203.8c-.2-.9-.2-1.7.1-2.6.4-1.6 1.9-3.3 3.5-4.8.8-.7 1.5-1.4 2.2-2.1 2.2-2 4.6-4.4 6.1-6.9 1.6 2.5 4 4.9 6.1 6.9.7.7 1.5 1.4 2.2 2.1 1.6 1.5 3.1 3.2 3.5 4.8.2.8.2 1.7.1 2.6-1 4.7-6.3 6.7-10 3.7-.4-.4-.8-.8-1.2-1.2 1.1 2.6 2.7 4.4 4.9 5.2v1.4h-11.3v-1.4c2.2-.8 3.8-2.6 4.9-5.2-.4.5-.8.9-1.2 1.2-3.6 3-9 1-9.9-3.7zm73.9 3.7c.4-.4.8-.8 1.2-1.2-1.1 2.6-2.7 4.4-4.9 5.2v1.4h11.3v-1.4c-2.2-.8-3.8-2.6-4.9-5.2.4.5.8.9 1.2 1.2 3.7 3 9.1 1.1 10-3.7.2-.9.2-1.7-.1-2.6-.4-1.6-1.9-3.3-3.5-4.8-.8-.7-1.5-1.4-2.2-2.1-2.2-2-4.6-4.4-6.1-6.9-1.6 2.5-4 4.9-6.1 6.9-.7.7-1.5 1.4-2.2 2.1-1.6 1.5-3.1 3.2-3.5 4.8-.2.8-.2 1.7-.1 2.6.8 4.7 6.2 6.7 9.9 3.7zm-120.7 151.1c-1.5 0-2.7 1.2-2.7 2.7s1.2 2.7 2.7 2.7 2.7-1.2 2.7-2.7-1.2-2.7-2.7-2.7zm47.9 5.4c1.5 0 2.7-1.2 2.7-2.7s-1.2-2.7-2.7-2.7-2.7 1.2-2.7 2.7 1.2 2.7 2.7 2.7zm40.8-156.5c.4-.4.8-.8 1.2-1.2-1.1 2.6-2.7 4.4-4.9 5.2v1.4h11.3v-1.4c-2.2-.8-3.8-2.6-4.9-5.2.4.5.8.9 1.2 1.2 3.7 3 9.1 1.1 10-3.7.2-.9.2-1.7-.1-2.6-.4-1.6-1.9-3.3-3.5-4.8-.8-.7-1.5-1.4-2.2-2.1-2.2-2-4.6-4.4-6.1-6.9-1.6 2.5-4 4.9-6.1 6.9-.7.7-1.5 1.4-2.2 2.1-1.6 1.5-3.1 3.2-3.5 4.8-.2.8-.2 1.7-.1 2.6.9 4.7 6.2 6.7 9.9 3.7zm-63.8 0c.4-.4.8-.8 1.2-1.2-1.1 2.6-2.7 4.4-4.9 5.2v1.4h11.3v-1.4c-2.2-.8-3.8-2.6-4.9-5.2.4.5.8.9 1.2 1.2 3.7 3 9.1 1.1 10-3.7.2-.9.2-1.7-.1-2.6-.4-1.6-1.9-3.3-3.5-4.8-.8-.7-1.5-1.4-2.2-2.1-2.2-2-4.6-4.4-6.1-6.9-1.6 2.5-4 4.9-6.1 6.9-.7.7-1.5 1.4-2.2 2.1-1.6 1.5-3.1 3.2-3.5 4.8-.2.8-.2 1.7-.1 2.6.8 4.7 6.2 6.7 9.9 3.7zm163.8-182.5v462c0 13.8-11.2 25-25 25h-320c-13.8 0-25-11.2-25-25v-462c0-13.8 11.2-25 25-25h320c13.8 0 25 11.2 25 25zm-82.9 151.8h33.6l-16.8-19.8zm-42.6 0h33.6l-16.8-19.8zm-42.6 0h33.6l-16.8-19.8zm-42.5 0h33.6l-16.8-19.8zm-48.6 15.1c-1.4-5.1-6.1-10.3-11.2-15.1-2.4-2.3-4.7-4.4-7-6.5-6.8-6.4-14.4-13.9-19.3-21.8-4.9 7.9-12.5 15.4-19.3 21.8-2.3 2.1-4.6 4.2-7 6.5-5.1 4.8-9.8 10-11.2 15.1-.7 2.6-.8 5.4-.2 8.1 3 14.9 19.9 21 31.6 11.6 1.4-1.1 2.7-2.4 3.8-3.9-3.5 8.2-8.5 13.9-15.5 16.4v4.3h35.7v-4.3c-7-2.6-12-8.2-15.5-16.4 1.1 1.4 2.4 2.7 3.8 3.9 11.6 9.4 28.6 3.3 31.6-11.6.4-2.7.4-5.4-.3-8.1zm-29.5-119.9 33.4-43.8h-29.5l-21.3 31.1-8.3 12.6v-43.6h-23.9v99h23.9v-26.1l9.8-10.7 21.1 36.8h28.3zm249.4 266.9h-78.9c5.7 5.8 9.3 13.7 9.3 22.5 0 17.6-14.3 31.9-31.9 31.9-9.2 0-18-4.1-23.9-10.9-6 6.8-14.7 10.9-23.9 10.9-17.6 0-31.9-14.3-31.9-31.9v30c0 50.1 40.6 90.7 90.7 90.7 25 0 47.7-10.1 64.1-26.5s26.6-39.1 26.6-64.1zm-62.9-15.8v7c9.7-7.3 16-18.9 16-31.9s-6.3-24.6-16-31.9v7c6.6 6.3 10.6 15.1 10.6 24.9s-4 18.6-10.6 24.9zm5.3-25c0-6.3-2-12.1-5.3-16.8v33.7c3.4-4.8 5.3-10.6 5.3-16.9zm-1.1 35.4h8c9-9.1 14.5-21.6 14.5-35.4 0-19.3-10.8-36-26.6-44.5v6.2c12.8 8 21.3 22.2 21.3 38.4-.1 14.3-6.8 27-17.2 35.3zm15.1 0h6.7c7.1-10 11.3-22.2 11.3-35.4 0-25.3-15.4-47-37.2-56.3v5.9c18.9 9 31.9 28.2 31.9 50.5-.1 13.4-4.8 25.7-12.7 35.3zm13.1 0h6.2c5.9-10.4 9.3-22.5 9.3-35.4 0-24.2-12-45.7-30.4-58.7h-10.2c21 11.2 35.3 33.3 35.3 58.7 0 13-3.8 25.2-10.2 35.4zm12.2 0h6c5.1-10.7 8-22.7 8-35.4 0-23-9.4-43.8-24.6-58.7h-7.9c16.6 14.2 27.1 35.2 27.1 58.7 0 12.8-3.1 24.8-8.6 35.4zm10.7-110h-166.1l4.4 10.6h157.4zm-100.2 87.4-11-8.2-6.1 4.3-6.1-4.3-11.1 8.2zm-30 5.3c2.7 2.5 5.7 5.7 12.9 5.7 7.1 0 10.1-3.2 12.9-5.7zm43.9-43.2c6.2-1.1 8.3-5 8.7-6h-12.3v-5h6.6c4.1 1.6 5.8 4.1 6.2 4.8h10.5c-13.1-20.8-46-14.5-46-14.5 8.4 7.2 10 20.7 10 20.7zm-26-26c.3-.1 29.6-5.7 44.2 10 .5.6 1.2.9 2 .9.6 0 1.3-.2 1.8-.7 1.1-1 1.1-2.7.1-3.8-16.6-18-47.9-11.9-49.2-11.6-1.4.3-2.4 1.7-2.1 3.1.4 1.5 1.8 2.4 3.2 2.1zm15.8 47.7c0 9.7 7.9 17.6 17.6 17.6s17.6-7.9 17.6-17.6-7.9-17.6-17.6-17.6-17.6 7.9-17.6 17.6zm-70.8-28.1c-2.8 9.8-3.9 20.2-3.9 26.4 0 11.4 0 30 11.2 48.9-5.2 4.9-8.4 11.7-8.4 19.4 0 14.7 11.9 26.6 26.6 26.6 10.5 0 19.6-6.1 23.9-15 4.3 8.9 13.4 15 23.9 15 14.7 0 26.6-11.9 26.6-26.6s-11.9-26.6-26.6-26.6c-.9 0-1.8 0-2.7.1v-3.9c0-1.5-1.2-2.7-2.7-2.7s-2.7 1.2-2.7 2.7v30.4c0 4.4 3.6 8 8 8s8-3.6 8-8-3.6-8-8-8c-.9 0-1.8.2-2.7.5v-3.9c.9-.2 1.8-.3 2.7-.3 6.5 0 11.7 5.2 11.7 11.7s-5.2 11.7-11.7 11.7-11.7-5.3-11.7-11.7v-30.4c0-1.5-1.2-2.7-2.7-2.7s-2.7 1.2-2.7 2.7v30.4c0 9.4 7.6 17 17 17s17-7.6 17-17-7.6-17-17-17c-.9 0-1.8.1-2.7.2v-4.3c.9-.1 1.8-.2 2.7-.2 11.7 0 21.3 9.5 21.3 21.3s-9.5 21.3-21.3 21.3-21.2-9.5-21.3-21.2v-.5-30c0-1.5-1.2-2.7-2.7-2.7s-2.7 1.2-2.7 2.7v30.5c-.1 11.7-9.6 21.2-21.3 21.2s-20.9-9.6-20.9-21.3 9.6-21.3 21.3-21.3c.9 0 1.8.1 2.7.2v4.3c-.9-.1-1.8-.2-2.7-.2-9.4 0-17 7.6-17 17s7.6 17 17 17 17-7.6 17-17v-30.4c0-1.5-1.2-2.7-2.7-2.7s-2.7 1.2-2.7 2.7v30.4c0 6.5-5.2 11.7-11.7 11.7s-11.7-5.3-11.7-11.7 5.2-11.7 11.7-11.7c.9 0 1.8.1 2.7.3v3.9c-.8-.3-1.7-.5-2.7-.5-4.4 0-8 3.6-8 8s3.6 8 8 8 8-3.6 8-8v-30.4c0-1.5-1.2-2.7-2.7-2.7s-2.7 1.2-2.7 2.7v3.9c-.9-.1-1.8-.1-2.7-.1-5.1 0-9.9 1.5-14 4-5.1-8.7-7.6-17.3-8.9-25.1s-1.3-14.9-1.3-20.5c0-12.3 4.6-38.4 15.6-45.2 4.2-2.6 9.5-2.8 14.3-.5 3.5 1.6 6.2 4.4 7.7 7.7-5.9-4-14.1-4.9-19-3.4-2.9.9-7 5-7.8 9.9-.9 5.5 2.4 11.4 2.4 11.4h16.3c6.2-1.1 8.3-5 8.7-6h-12.1v-5h6.6c3.6 1.4 5.4 3.5 6 4.5-.7 4.2-2.2 8.2-3.6 11.9-1.6 4.1-2.9 6.6-2.9 9.7.1 4.1 1.9 6 3.4 7 3.4 2.1 8.3.8 11-.1 3.2 3 8.9 6 14 1.8 3.4-2.8 3.2-6.6 2.6-8.4-.5-1.4-2-2.1-3.4-1.6s-2.1 2-1.6 3.4c.1.3.3 1.5-1 2.6-3.4 2.8-7.7-2.3-7.9-2.5-.8-.9-2.1-1.2-3.2-.7-1.9.9-6.1 2.2-7.7 1.2-.6-.4-.9-1.2-.9-2.5 0-2.1 1.2-4.3 2.5-7.7 2.3-6.2 5.3-13.8 4.1-22.2-.9-6.7-5.3-12.5-11.8-15.6-6.4-3-13.7-2.7-19.4.8-6.7 3.9-11.2 13.2-14 23zm10.6 10.5v35.1c9.7 0 17.6-7.9 17.6-17.6s-7.9-17.5-17.6-17.5zm173.6-94.9h-200l14.8 36h170.5zm-165.8 25.3 1.2-1.2c-1.1 2.6-2.7 4.4-4.9 5.2v1.4h11.3v-1.4c-2.2-.8-3.8-2.6-4.9-5.2.4.5.8.9 1.2 1.2 3.7 3 9.1 1.1 10-3.7.2-.9.2-1.7-.1-2.6-.4-1.6-1.9-3.3-3.5-4.8-.8-.7-1.5-1.4-2.2-2.1-2.2-2-4.6-4.4-6.1-6.9-1.6 2.5-4 4.9-6.1 6.9-.7.7-1.5 1.4-2.2 2.1-1.6 1.5-3.1 3.2-3.5 4.8-.2.8-.2 1.7-.1 2.6.8 4.7 6.2 6.7 9.9 3.7z" fill="url(#_52_00000046298112633126507160000012305081904129965962_)"/></g></svg>