<svg id="Layer_2_00000013872593697394042920000001891278446717407875_" enable-background="new 0 0 512 512" viewBox="0 0 512 512" xmlns="http://www.w3.org/2000/svg" xmlns:xlink="http://www.w3.org/1999/xlink"><linearGradient id="_53_00000112627980705837828710000010999775813687615894_" gradientTransform="matrix(1 0 0 -1 0 512)" gradientUnits="userSpaceOnUse" x1="42.821" x2="469.179" y1="469.179" y2="42.821"><stop offset="0" stop-color="#fe5b42"/><stop offset="1" stop-color="#ba0000"/></linearGradient><g id="Icon"><path id="_53" d="m154.8 90.3h-21.3l10.7-34.3zm286.2-65.3v462c0 13.8-11.2 25-25 25h-320c-13.8 0-25-11.2-25-25v-462c0-13.8 11.2-25 25-25h320c13.8 0 25 11.2 25 25zm-344.3 102.2h25.5l5.7-18.5h32.7l5.8 18.5h25.6l-36.6-99h-22.4zm87.2 42.6c-3.2-15.7-21-22.1-33.2-12.2-2.6 2.2-4.8 4.8-6.4 7.8-1.6-3-3.8-5.6-6.4-7.8-12.2-9.9-30-3.5-33.2 12.2-.6 2.8-.5 5.7.2 8.5 1.5 5.4 6.4 10.9 11.7 15.9 2.5 2.4 5 4.6 7.4 6.9 7.5 7 14.8 14.3 20.3 23 5.5-8.6 12.8-16 20.3-23 2.4-2.2 4.8-4.5 7.4-6.9 5.3-5 10.2-10.5 11.7-15.9.7-2.7.8-5.7.2-8.5zm224.3 145.6c-9-44.1-59-62.2-93.4-34.3-7.3 6.1-13.4 13.5-18 21.9-4.6-8.4-10.7-15.8-18-21.9-34.4-28-84.4-9.9-93.4 34.3-1.7 7.9-1.5 16.2.6 24 4.1 15.2 18 30.6 33 44.7 7.1 6.8 14 13 20.7 19.3 21 19.6 41.6 40.2 57.2 64.6 15.5-24.3 36.1-45 57.1-64.6 6.7-6.3 13.6-12.6 20.7-19.3 14.9-14.1 28.8-29.5 33-44.7 2.1-7.9 2.2-16.1.5-24z" fill="url(#_53_00000112627980705837828710000010999775813687615894_)"/></g></svg>