<svg id="Layer_2_00000108997403119323351940000002892554764996032173_" enable-background="new 0 0 512 512" viewBox="0 0 512 512" xmlns="http://www.w3.org/2000/svg" xmlns:xlink="http://www.w3.org/1999/xlink"><linearGradient id="_38_00000052824971996128487980000017020214992441371278_" gradientTransform="matrix(1 0 0 -1 0 512)" gradientUnits="userSpaceOnUse" x1="42.821" x2="469.179" y1="469.179" y2="42.821"><stop offset="0" stop-color="#454545"/><stop offset="1"/></linearGradient><g id="Icon"><path id="_38" d="m416 0h-320c-13.8 0-25 11.2-25 25v462c0 13.8 11.2 25 25 25h320c13.8 0 25-11.2 25-25v-462c0-13.8-11.2-25-25-25zm-303.5 43.2c3-5.1 7.2-9.2 12.6-12.1s11.4-4.4 18.1-4.4c10.7 0 18.9 2.5 24.7 7.4s8.7 12 8.7 21.3c0 3.9-.7 7.7-2.2 11.4s-3.7 7.6-6.8 11.6c-3.1 4.1-8 9.5-14.8 16.3l-12.8 14.8h38.9v17.7h-68.9v-14.9l31.8-33.4c7.8-8.9 11.8-16 11.8-21.3 0-4.3-.9-7.5-2.8-9.7s-4.6-3.3-8.1-3.3-6.3 1.5-8.5 4.5-3.3 6.7-3.3 11.1h-23c.1-6.2 1.6-11.8 4.6-17zm69.5 156.8c-3 14.9-19.9 21-31.6 11.6-1.4-1.1-2.7-2.4-3.8-3.9 3.5 8.2 8.5 13.9 15.5 16.4v4.3h-35.6v-4.3c7-2.6 12-8.2 15.5-16.4-1.1 1.4-2.4 2.7-3.8 3.9-11.6 9.4-28.5 3.3-31.6-11.6-.6-2.7-.5-5.4.2-8.1 1.4-5.1 6.1-10.3 11.2-15.1 2.4-2.3 4.7-4.4 7-6.5 6.8-6.4 14.4-13.9 19.3-21.8 4.9 7.9 12.5 15.4 19.3 21.8 2.3 2.1 4.6 4.2 7 6.5 5.1 4.8 9.8 10 11.2 15.1.7 2.7.7 5.4.2 8.1zm220.8 200.2c-8.5 41.9-56.1 59.1-88.8 32.6-3.9-3.2-7.5-6.8-10.6-10.8 9.9 23.1 23.8 38.9 43.6 46.3v12.1h-100.3v-12.1c19.8-7.3 33.6-23.2 43.6-46.3-3.1 4-6.6 7.6-10.6 10.8-32.7 26.5-80.3 9.3-88.8-32.6-1.6-7.5-1.5-15.3.5-22.8 3.9-14.5 17.2-29.1 31.4-42.5 6.8-6.4 13.3-12.3 19.7-18.3 19.1-17.9 40.4-39.1 54.3-61.3 13.9 22.2 35.2 43.4 54.3 61.3 6.4 6 12.9 12 19.7 18.3 14.2 13.4 27.5 28.1 31.4 42.5 2 7.5 2.2 15.3.6 22.8z" fill="url(#_38_00000052824971996128487980000017020214992441371278_)"/></g></svg>