<svg id="Layer_2_00000066488110044580892310000012274430701206772148_" enable-background="new 0 0 512 512" viewBox="0 0 512 512" xmlns="http://www.w3.org/2000/svg" xmlns:xlink="http://www.w3.org/1999/xlink"><linearGradient id="_87_00000081624963097997216390000006398928554226763432_" gradientTransform="matrix(1 0 0 -1 0 512)" gradientUnits="userSpaceOnUse" x1="42.821" x2="469.179" y1="469.179" y2="42.821"><stop offset="0" stop-color="#fe5b42"/><stop offset="1" stop-color="#ba0000"/></linearGradient><g id="Icon"><path id="_87" d="m416 0h-320c-13.8 0-25 11.2-25 25v462c0 13.8 11.2 25 25 25h320c13.8 0 25-11.2 25-25v-462c0-13.8-11.2-25-25-25zm-262.4 88.3c-2.5-2.1-5.9-3.1-10.3-3.1h-11.1v-17h10.8c8.6 0 12.9-4.2 12.9-12.6 0-3.3-1-5.9-3.1-8-2-2.1-4.9-3.1-8.6-3.1-3 0-5.7.9-7.9 2.7s-3.4 4-3.4 6.6h-22.9c0-5.2 1.5-9.9 4.4-13.9 2.9-4.1 6.9-7.3 12.1-9.5 5.1-2.3 10.8-3.4 17-3.4 11 0 19.7 2.5 26 7.5s9.4 11.9 9.4 20.7c0 4.3-1.3 8.3-3.9 12.1s-6.4 6.8-11.4 9.2c5.3 1.9 9.4 4.8 12.4 8.7s4.5 8.7 4.5 14.4c0 8.8-3.4 15.9-10.2 21.2s-15.7 7.9-26.8 7.9c-6.5 0-12.5-1.2-18-3.7-5.6-2.5-9.8-5.9-12.6-10.3s-4.3-9.3-4.3-14.9h23c0 3 1.2 5.7 3.7 7.9s5.5 3.3 9 3.3c4 0 7.2-1.1 9.6-3.4 2.4-2.2 3.6-5.1 3.6-8.6-.2-5-1.4-8.6-3.9-10.7zm-9.3 140.2c-10.7-15.8-24.2-29.3-40-40 16-10.3 29.6-23.9 39.9-39.9 10.3 16 23.9 29.6 39.9 39.9-15.6 10.6-29.2 24.2-39.8 40zm152.6 251.8c-.1 0-.1 0 0 0-30-44.3-68.1-82.5-112.4-112.5 45.1-29 83.4-67.3 112.4-112.4 29 45.1 67.3 83.4 112.4 112.4-44.3 30-82.5 68.2-112.4 112.5z" fill="url(#_87_00000081624963097997216390000006398928554226763432_)"/></g></svg>