<svg id="Layer_2_00000109029419831873449700000010201912547995224740_" enable-background="new 0 0 512 512" viewBox="0 0 512 512" xmlns="http://www.w3.org/2000/svg" xmlns:xlink="http://www.w3.org/1999/xlink"><linearGradient id="_80_00000085230064059446562550000000940328430343308731_" gradientTransform="matrix(1 0 0 -1 0 512)" gradientUnits="userSpaceOnUse" x1="42.821" x2="469.179" y1="469.179" y2="42.821"><stop offset="0" stop-color="#454545"/><stop offset="1"/></linearGradient><g id="Icon"><path id="_80" d="m332.6 206.9c-2.5-2.4-2.6-6.3-.3-8.8 1.2-1.2 2.8-2 4.5-2h.4c-1.3-3.2.1-6.8 3.3-8.2.8-.3 1.6-.5 2.4-.5s1.6.2 2.4.5c3.2 1.3 4.6 5 3.3 8.2h.4c.9 0 1.7.2 2.5.5s1.5.8 2.1 1.4c2.4 2.5 2.2 6.4-.3 8.8s-6.5 2.2-8.8-.3c1.2 2.2 2.6 4.2 4.3 4.8v1.4h-11.8v-1.4c1.7-.6 3.1-2.6 4.3-4.8-2.3 2.6-6.2 2.7-8.7.4zm-23.2-.3c-1.2 2.2-2.6 4.2-4.3 4.8v1.4h11.8v-1.4c-1.7-.6-3.1-2.6-4.3-4.8 2.4 2.5 6.3 2.6 8.8.3 2.5-2.4 2.6-6.3.3-8.8-.6-.6-1.3-1.1-2.1-1.4s-1.6-.5-2.5-.5c-.1 0-.3 0-.4 0 1.3-3.2-.1-6.8-3.3-8.2-.8-.3-1.6-.5-2.4-.5s-1.6.2-2.4.5c-3.2 1.3-4.7 5-3.3 8.2-.1 0-.3 0-.4 0-1.7 0-3.4.7-4.5 2-2.4 2.5-2.2 6.4.3 8.8s6.4 2.1 8.7-.4zm63.9 0c-1.2 2.2-2.6 4.2-4.3 4.8v1.4h11.8v-1.4c-1.7-.6-3.1-2.6-4.3-4.8 2.4 2.5 6.3 2.6 8.8.3 2.5-2.4 2.6-6.3.3-8.8-.6-.6-1.3-1.1-2.1-1.4s-1.6-.5-2.5-.5c-.1 0-.3 0-.4 0 1.3-3.2-.1-6.8-3.3-8.2-.8-.3-1.6-.5-2.4-.5s-1.6.2-2.4.5c-3.2 1.3-4.6 5-3.3 8.2-.1 0-.3 0-.4 0-1.7 0-3.4.7-4.5 2-2.4 2.5-2.2 6.4.3 8.8s6.4 2.1 8.7-.4zm67.7-181.6v462c0 13.8-11.2 25-25 25h-320c-13.8 0-25-11.2-25-25v-462c0-13.8 11.2-25 25-25h320c13.8 0 25 11.2 25 25zm-212.2 154h164.6c-5-12.4-40-22-82.3-22s-77.3 9.6-82.3 22zm-118.6-81.7c0 10 3 17.7 9 23.1s14.4 8.2 25.2 8.2c6.4 0 12.3-1.4 17.5-4.1s9.3-6.6 12.2-11.5 4.4-10.6 4.4-16.9v-67.8h-23.8v67.9c0 4.4-.9 7.9-2.7 10.4s-4.3 3.7-7.7 3.7c-3.7 0-6.3-1-7.8-3.1s-2.3-5.3-2.3-9.9zm67.7 84.6c-3.7-3.9-8.9-6.2-14.3-6.2-.4 0-.8 0-1.2 0 4.2-10-.5-21.5-10.4-25.7-2.5-1.1-5.1-1.6-7.6-1.6s-5.1.5-7.6 1.6c-10 4.2-14.7 15.7-10.4 25.7-.4 0-.8 0-1.2 0-5.4 0-10.6 2.2-14.3 6.2-7.4 7.9-7 20.3.9 27.7s20.3 7 27.7-.9c-3.8 7-8.1 13.3-13.6 15.2v4.5h37.1v-4.4c-5.4-1.9-9.8-8.2-13.6-15.2 7.4 7.9 19.8 8.3 27.7.9s8.2-19.9.8-27.8zm223.8 156.9h-78.9c5.7 5.8 9.3 13.7 9.3 22.5 0 17.6-14.3 31.9-31.9 31.9-9.2 0-17.9-4.1-23.9-10.9-6 6.8-14.7 10.9-23.9 10.9-17.6 0-31.9-14.3-31.9-31.9v30c0 50.1 40.6 90.7 90.7 90.7 25 0 47.7-10.1 64.1-26.5s26.5-39.1 26.5-64.1v-52.6zm-44.3-5.3h6c-5.5-10.6-8.6-22.6-8.6-35.4 0-23.5 10.5-44.5 27.1-58.7h-7.9c-15.1 15-24.5 35.7-24.5 58.7 0 12.7 2.8 24.7 7.9 35.4zm-13.3-35.4c0-22.5 8.5-43.1 22.6-58.7h-7.1c-13 16-20.8 36.4-20.8 58.7 0 12.5 2.5 24.5 7 35.4h5.8c-4.8-10.8-7.4-22.8-7.5-35.4zm25.3 35.4h6.2c-6.5-10.3-10.2-22.4-10.2-35.4 0-25.4 14.3-47.5 35.2-58.7h-10.1c-18.4 13-30.4 34.5-30.4 58.7 0 12.9 3.4 25 9.3 35.4zm24.7-110h-166.1l4.4 10.6h157.4zm-100.2 87.3-11-8.2-6.1 4.3-6.1-4.3-11.1 8.2zm-29.9 5.4c2.7 2.5 5.7 5.7 12.9 5.7 7.1 0 10.1-3.2 12.9-5.7zm43.8-43.2c6.2-1.1 8.3-5 8.7-6h-12.3v-5h6.6c4.1 1.6 5.8 4.1 6.2 4.8h10.5c-13.1-20.8-46-14.5-46-14.5 8.4 7.2 10 20.7 10 20.7zm-25.9-26c.3-.1 29.6-5.7 44.2 10 .5.6 1.2.9 2 .9.6 0 1.3-.2 1.8-.7 1.1-1 1.1-2.7.2-3.8-16.6-18-47.9-11.9-49.2-11.6-1.4.3-2.4 1.7-2.1 3.1.2 1.5 1.6 2.4 3.1 2.1zm15.8 47.7c0 9.7 7.9 17.6 17.5 17.6s17.6-7.9 17.6-17.6-7.9-17.6-17.6-17.6-17.5 7.9-17.5 17.6zm-74.9-1.7c0 11.4 0 30 11.2 48.9-5.2 4.9-8.4 11.7-8.4 19.4 0 14.7 11.9 26.6 26.6 26.6 10.5 0 19.6-6.1 24-15 4.3 8.9 13.4 15 23.9 15 14.7 0 26.6-11.9 26.6-26.6s-11.9-26.6-26.6-26.6c-.9 0-1.8 0-2.7.1v-3.9c0-1.5-1.2-2.7-2.7-2.7s-2.7 1.2-2.7 2.7v30.4c0 4.4 3.6 8 8 8s8-3.6 8-8-3.6-8-8-8c-.9 0-1.8.2-2.7.5v-3.9c.9-.2 1.7-.3 2.7-.3 6.5 0 11.7 5.2 11.7 11.7s-5.2 11.7-11.7 11.7-11.7-5.3-11.7-11.7v-30.4c0-1.5-1.2-2.7-2.7-2.7s-2.7 1.2-2.7 2.7v30.4c0 9.4 7.6 17 17 17s17-7.6 17-17-7.6-17-17-17c-.9 0-1.8.1-2.7.2v-4.3c.9-.1 1.8-.2 2.7-.2 11.7 0 21.3 9.5 21.3 21.3s-9.5 21.3-21.3 21.3-21.2-9.5-21.3-21.2v-.5-30c0-1.5-1.2-2.7-2.7-2.7s-2.7 1.2-2.7 2.7v30.5c-.1 11.7-9.6 21.2-21.3 21.2s-21.3-9.5-21.3-21.3 9.5-21.3 21.3-21.3c.9 0 1.8.1 2.7.2v4.3c-.9-.1-1.8-.2-2.7-.2-9.4 0-17 7.6-17 17s7.6 17 17 17 17-7.6 17-17v-30.4c0-1.5-1.2-2.7-2.7-2.7s-2.7 1.2-2.7 2.7v30.4c0 6.5-5.2 11.7-11.7 11.7s-11.7-5.3-11.7-11.7 5.2-11.7 11.7-11.7c.9 0 1.8.1 2.7.3v3.9c-.8-.3-1.7-.5-2.7-.5-4.4 0-8 3.6-8 8s3.6 8 8 8 8-3.6 8-8v-30.4c0-1.5-1.2-2.7-2.7-2.7s-2.7 1.2-2.7 2.7v3.9c-.9-.1-1.8-.1-2.7-.1-5.1 0-9.9 1.5-14 4-10.1-17.3-10.1-34.5-10.1-45.6 0-12.3 4.6-38.4 15.6-45.2 4.2-2.6 9.5-2.8 14.3-.5 3.5 1.6 6.2 4.4 7.7 7.7-5.8-4-14-4.9-19-3.4-2.9.9-7 5-7.8 9.9-.9 5.5 2.4 11.4 2.4 11.4h16.3c6.2-1.1 8.3-5 8.7-6h-12.3v-5h6.6c3.6 1.4 5.4 3.5 6 4.5-.7 4.2-2.2 8.2-3.6 11.9-1.6 4.1-2.9 6.6-2.9 9.7.1 4.1 1.9 6 3.4 7 3.4 2.1 8.3.8 11-.1 3.2 3 8.9 6 14 1.8 3.4-2.8 3.3-6.6 2.6-8.4-.5-1.4-2-2.1-3.4-1.6s-2.1 2-1.6 3.4c.1.3.3 1.5-1 2.6-3.3 2.8-7.7-2.3-7.9-2.5-.8-.9-2.1-1.2-3.2-.7-1.9.9-6.1 2.2-7.7 1.2-.6-.4-.9-1.2-.9-2.5 0-2.1 1.2-4.3 2.5-7.7 2.4-6.2 5.3-13.8 4.1-22.2-1-6.7-5.3-12.5-11.8-15.6-6.4-3-13.7-2.7-19.4.8-13 8.1-17.5 36.9-17.5 49.4zm14.6-15.9v35.1c9.7 0 17.6-7.9 17.6-17.6s-7.9-17.5-17.6-17.5zm164.3-5c-6 7-9.7 16.1-9.7 26s3.6 19 9.7 26v-9.3c-2.8-5-4.3-10.7-4.3-16.7s1.6-11.8 4.3-16.7zm0-14.5c-12.3 9.2-20.3 23.9-20.3 40.5 0 13.8 5.5 26.3 14.5 35.4h5.8v-1.8c-9.2-8.3-15-20.3-15-33.6s5.8-25.3 15-33.6zm0-12.7c-18.5 10.5-30.9 30.4-30.9 53.2 0 13.2 4.2 25.4 11.3 35.4h6.7c-7.9-9.6-12.7-22-12.7-35.4 0-19.7 10.2-37 25.6-46.9zm9.3-62.8h-199.9l14.8 36h170.5zm-133.5 24.5c-1.2 2.2-2.6 4.2-4.3 4.8v1.4h11.8v-1.4c-1.7-.6-3.1-2.6-4.3-4.8 2.4 2.5 6.3 2.6 8.8.3 2.5-2.4 2.6-6.3.3-8.8-1.2-1.2-2.8-2-4.5-2-.1 0-.3 0-.4 0 1.3-3.2-.1-6.8-3.3-8.2-.8-.3-1.6-.5-2.4-.5s-1.6.2-2.4.5c-3.2 1.3-4.6 5-3.3 8.2-.1 0-.3 0-.4 0-1.7 0-3.4.7-4.5 2-2.3 2.5-2.2 6.4.3 8.8s6.3 2.2 8.6-.3zm-25.2 152c-1.5 0-2.7 1.2-2.7 2.7s1.2 2.7 2.7 2.7 2.7-1.2 2.7-2.7-1.3-2.7-2.7-2.7zm47.9 5.4c1.5 0 2.7-1.2 2.7-2.7s-1.2-2.7-2.7-2.7-2.7 1.2-2.7 2.7 1.2 2.7 2.7 2.7zm-54.6-157.4c-1.2 2.2-2.6 4.2-4.3 4.8v1.4h11.8v-1.4c-1.7-.6-3.1-2.6-4.3-4.8 2.4 2.5 6.3 2.6 8.8.3 2.5-2.4 2.6-6.3.3-8.8-1.2-1.2-2.8-2-4.5-2-.1 0-.3 0-.4 0 1.3-3.2-.1-6.8-3.3-8.2-.8-.3-1.6-.5-2.4-.5s-1.6.2-2.4.5c-3.2 1.3-4.6 5-3.3 8.2-.1 0-.3 0-.4 0-1.7 0-3.4.7-4.5 2-2.4 2.5-2.2 6.4.3 8.8s6.2 2.2 8.6-.3z" fill="url(#_80_00000085230064059446562550000000940328430343308731_)"/></g></svg>