<svg id="Layer_2_00000131343805678716910920000016813465049713810093_" enable-background="new 0 0 512 512" viewBox="0 0 512 512" xmlns="http://www.w3.org/2000/svg" xmlns:xlink="http://www.w3.org/1999/xlink"><linearGradient id="_68_00000036247543503893015220000010563062872034611899_" gradientTransform="matrix(1 0 0 -1 0 512)" gradientUnits="userSpaceOnUse" x1="42.821" x2="469.179" y1="469.179" y2="42.821"><stop offset="0" stop-color="#fe5b42"/><stop offset="1" stop-color="#ba0000"/></linearGradient><g id="Icon"><path id="_68" d="m362.4 196.9c-.2-.9-.2-1.8-.1-2.7 1-5 6.6-7 10.5-3.9.8.7 1.5 1.5 2 2.5.5-.9 1.2-1.8 2-2.5 3.9-3.2 9.5-1.1 10.5 3.9.2.9.2 1.8 0 2.7-.5 1.7-2 3.4-3.7 5.1-.8.8-1.6 1.5-2.3 2.2-2.4 2.2-4.7 4.5-6.4 7.3-1.8-2.8-4.1-5.1-6.5-7.3-.8-.7-1.5-1.4-2.3-2.2-1.7-1.6-3.2-3.3-3.7-5.1zm-60.2 5.1c.8.8 1.6 1.5 2.3 2.2 2.4 2.2 4.7 4.5 6.5 7.3 1.8-2.8 4.1-5.1 6.4-7.3.8-.7 1.5-1.4 2.3-2.2 1.7-1.6 3.2-3.3 3.7-5.1.2-.9.2-1.8 0-2.7-1-5-6.6-7-10.5-3.9-.8.7-1.5 1.5-2 2.5-.5-.9-1.2-1.8-2-2.5-3.9-3.1-9.5-1.1-10.5 3.9-.2.9-.2 1.8.1 2.7.5 1.7 2.1 3.5 3.7 5.1zm32 0c.8.8 1.6 1.5 2.3 2.2 2.4 2.2 4.7 4.5 6.5 7.3 1.8-2.8 4.1-5.1 6.4-7.3.8-.7 1.5-1.4 2.3-2.2 1.7-1.6 3.2-3.3 3.7-5.1.2-.9.2-1.8 0-2.7-1-5-6.6-7-10.5-3.9-.8.7-1.5 1.5-2 2.5-.5-.9-1.2-1.8-2-2.5-3.9-3.1-9.5-1.1-10.5 3.9-.2.9-.2 1.8.1 2.7.4 1.7 2 3.5 3.7 5.1zm-34 162c1.5 0 2.7-1.2 2.7-2.7s-1.2-2.7-2.7-2.7-2.7 1.2-2.7 2.7 1.2 2.7 2.7 2.7zm-61.8-162c.8.8 1.6 1.5 2.3 2.2 2.4 2.2 4.7 4.5 6.5 7.3 1.8-2.8 4.1-5.1 6.4-7.3.8-.7 1.5-1.4 2.3-2.2 1.7-1.6 3.2-3.3 3.7-5.1.2-.9.2-1.8 0-2.7-1-5-6.6-7-10.5-3.9-.8.7-1.5 1.5-2 2.5-.5-.9-1.2-1.8-2-2.5-3.9-3.1-9.5-1.1-10.5 3.9-.2.9-.2 1.8.1 2.7.4 1.7 2 3.5 3.7 5.1zm202.6-177v462c0 13.8-11.2 25-25 25h-320c-13.8 0-25-11.2-25-25v-462c0-13.8 11.2-25 25-25h320c13.8 0 25 11.2 25 25zm-82.9 151.8h33.6l-16.8-19.8zm-42.6 0h33.6l-16.8-19.8zm-42.6 0h33.6l-16.8-19.8zm-42.5 0h33.6l-16.8-19.8zm-46.5-7c-3.2-15.7-21-22.1-33.2-12.2-2.6 2.2-4.8 4.8-6.4 7.8-1.6-3-3.8-5.6-6.4-7.8-12.2-9.9-30-3.5-33.2 12.2-.6 2.8-.5 5.7.2 8.5 1.5 5.4 6.4 10.9 11.7 15.9 2.5 2.4 5 4.6 7.4 6.9 7.5 7 14.8 14.3 20.3 23 5.5-8.6 12.8-16 20.3-23 2.4-2.2 4.8-4.5 7.4-6.9 5.3-5 10.2-10.5 11.7-15.9.7-2.7.8-5.7.2-8.5zm-31.6-97.8 33.4-43.8h-29.5l-21.3 31.1-8.3 12.6v-43.6h-23.9v99h23.9v-26.1l9.8-10.7 21.1 36.8h28.3zm249.4 266.8h-78.9c5.7 5.8 9.3 13.7 9.3 22.5 0 17.6-14.3 31.9-31.9 31.9-9.2 0-18-4.1-23.9-10.9-6 6.8-14.7 10.9-23.9 10.9-17.6 0-31.9-14.3-31.9-31.9v30c0 50.1 40.6 90.7 90.7 90.7 25 0 47.7-10.1 64.1-26.5s26.6-39.1 26.6-64.1zm-167.7 3.1c-5.2 4.9-8.4 11.7-8.4 19.4 0 14.7 11.9 26.6 26.6 26.6 10.5 0 19.6-6.1 23.9-15 4.3 8.9 13.4 15 23.9 15 14.7 0 26.6-11.9 26.6-26.6s-11.9-26.6-26.6-26.6c-.9 0-1.8 0-2.7.1v-3.9c0-1.5-1.2-2.7-2.7-2.7s-2.7 1.2-2.7 2.7v30.4c0 4.4 3.6 8 8 8s8-3.6 8-8-3.6-8-8-8c-.9 0-1.8.2-2.7.5v-3.9c.9-.2 1.7-.3 2.7-.3 6.5 0 11.7 5.2 11.7 11.7s-5.2 11.7-11.7 11.7-11.7-5.2-11.7-11.7v-30.4c0-1.5-1.2-2.7-2.7-2.7s-2.7 1.2-2.7 2.7v30.4c0 9.4 7.6 17 17 17s17-7.6 17-17-7.6-17-17-17c-.9 0-1.8.1-2.7.2v-4.3c.9-.1 1.8-.2 2.7-.2 11.7 0 21.3 9.5 21.3 21.3s-9.5 21.3-21.3 21.3c-11.7 0-21.2-9.5-21.3-21.2v-.6-30c0-1.5-1.2-2.7-2.7-2.7s-2.7 1.2-2.7 2.7v30.5c-.1 11.7-9.6 21.2-21.3 21.2s-21.3-9.5-21.3-21.3 9.6-21.3 21.3-21.3c.9 0 1.8.1 2.7.2v4.3c-.9-.1-1.8-.2-2.7-.2-9.4 0-17 7.6-17 17s7.6 17 17 17 17-7.6 17-17v-30.4c0-1.5-1.2-2.7-2.7-2.7s-2.7 1.2-2.7 2.7v30.4c0 6.5-5.2 11.7-11.7 11.7s-11.7-5.2-11.7-11.7 5.2-11.7 11.7-11.7c.9 0 1.8.1 2.7.3v3.9c-.8-.3-1.7-.5-2.7-.5-4.4 0-8 3.6-8 8s3.6 8 8 8 8-3.6 8-8v-30.4c0-1.5-1.2-2.7-2.7-2.7s-2.7 1.2-2.7 2.7v3.9c-.9-.1-1.8-.1-2.7-.1-5.1 0-9.9 1.5-14 4-10.1-17.3-10.1-34.5-10.1-45.6 0-12.3 4.6-38.4 15.6-45.2 4.2-2.6 9.5-2.7 14.3-.5 3.5 1.6 6.2 4.4 7.7 7.7-5.9-4-14.1-4.9-19-3.4-2.9.9-7 5-7.8 9.9-.9 5.5 2.4 11.5 2.4 11.5h16.2c6.2-1.1 8.3-5 8.7-6h-12.3v-5h6.6c3.6 1.4 5.4 3.5 6 4.5-.7 4.2-2.2 8.2-3.6 11.9-1.6 4.1-2.9 6.6-2.9 9.7.1 4.1 1.9 6 3.4 7 3.4 2.1 8.3.9 11-.1 3.2 3 8.9 6 14 1.8 3.4-2.8 3.2-6.6 2.6-8.4-.5-1.4-2-2.1-3.4-1.6s-2.1 2-1.6 3.4c.1.3.3 1.5-1 2.6-3.3 2.8-7.7-2.3-7.9-2.5-.8-.9-2.1-1.2-3.2-.7-1.9.9-6.1 2.2-7.7 1.2-.6-.4-.9-1.2-.9-2.5 0-2.1 1.2-4.3 2.5-7.7 2.4-6.2 5.3-13.8 4.1-22.2-.9-6.7-5.3-12.6-11.8-15.6-6.4-3-13.7-2.7-19.4.8-13.7 8.4-18.2 37.3-18.2 49.8.9 11 .9 29.7 12.1 48.5zm104.8-18.9v7c9.7-7.3 16-18.9 16-31.9s-6.3-24.6-16-31.9v7c6.6 6.3 10.6 15.1 10.6 24.9s-4 18.7-10.6 24.9zm5.3-24.9c0-6.3-2-12.1-5.3-16.8v33.7c3.4-4.8 5.3-10.6 5.3-16.9zm-1.1 35.4h8c9-9.1 14.5-21.6 14.5-35.4 0-19.3-10.8-36-26.6-44.5v6.2c12.8 8 21.3 22.2 21.3 38.3-.1 14.4-6.8 27.1-17.2 35.4zm15.1 0h6.7c7.1-10 11.3-22.2 11.3-35.4 0-25.3-15.4-47-37.2-56.3v5.9c18.9 9 31.9 28.2 31.9 50.5-.1 13.3-4.8 25.7-12.7 35.3zm13.1 0h6.2c5.9-10.4 9.3-22.5 9.3-35.4 0-24.2-12-45.7-30.4-58.7h-10.2c21 11.2 35.3 33.3 35.3 58.7 0 13-3.7 25.2-10.2 35.4zm12.2 0h6c5.1-10.7 8-22.7 8-35.4 0-23-9.4-43.8-24.6-58.7h-7.9c16.6 14.2 27.1 35.2 27.1 58.7 0 12.8-3.1 24.8-8.6 35.4zm10.7-110h-166.1l4.4 10.6h157.4zm-100.2 87.3-11-8.2-6.1 4.3-6.1-4.3-11.1 8.2zm-30 5.4c2.7 2.5 5.7 5.7 12.9 5.7 7.1 0 10.1-3.2 12.9-5.7zm43.9-43.2c6.2-1.1 8.3-5 8.7-6h-12.3v-5h6.6c4.1 1.6 5.8 4.1 6.2 4.8h10.5c-13.1-20.8-46-14.5-46-14.5 8.4 7.2 10 20.7 10 20.7zm-25.9-26c.3-.1 29.6-5.7 44.2 10 .5.6 1.2.9 2 .9.6 0 1.3-.2 1.8-.7 1.1-1 1.1-2.7.1-3.8-16.6-18-47.9-11.9-49.2-11.6-1.4.3-2.4 1.7-2.1 3.1.3 1.5 1.7 2.4 3.2 2.1zm15.7 47.7c0 9.7 7.9 17.6 17.6 17.6s17.6-7.9 17.6-17.6-7.9-17.6-17.6-17.6-17.6 7.9-17.6 17.6zm-60.2-17.6v35.1c9.7 0 17.6-7.9 17.6-17.6s-7.9-17.5-17.6-17.5zm173.6-94.9h-200l14.8 36h170.5zm-158.7 176.4c-1.5 0-2.7 1.2-2.7 2.7s1.2 2.7 2.7 2.7 2.7-1.2 2.7-2.7-1.3-2.7-2.7-2.7zm18-156.6c.8.8 1.6 1.5 2.3 2.2 2.4 2.2 4.7 4.5 6.5 7.3 1.8-2.8 4.1-5.1 6.4-7.3.8-.7 1.5-1.4 2.3-2.2 1.7-1.6 3.2-3.3 3.7-5.1.2-.9.2-1.8 0-2.7-1-5-6.6-7-10.5-3.9-.8.7-1.5 1.5-2 2.5-.5-.9-1.2-1.8-2-2.5-3.9-3.1-9.5-1.1-10.5 3.9-.2.9-.2 1.8.1 2.7.4 1.7 2 3.5 3.7 5.1z" fill="url(#_68_00000036247543503893015220000010563062872034611899_)"/></g></svg>