<svg id="Layer_2_00000107562618323362861240000004303264666820535178_" enable-background="new 0 0 512 512" viewBox="0 0 512 512" xmlns="http://www.w3.org/2000/svg" xmlns:xlink="http://www.w3.org/1999/xlink"><linearGradient id="_54_00000026154159158295631160000018406894639228505746_" gradientTransform="matrix(1 0 0 -1 0 512)" gradientUnits="userSpaceOnUse" x1="42.821" x2="469.179" y1="469.179" y2="42.821"><stop offset="0" stop-color="#fe5b42"/><stop offset="1" stop-color="#ba0000"/></linearGradient><g id="Icon"><path id="_54" d="m416 0h-320c-13.8 0-25 11.2-25 25v462c0 13.8 11.2 25 25 25h320c13.8 0 25-11.2 25-25v-462c0-13.8-11.2-25-25-25zm-303.5 43.2c3-5.1 7.2-9.2 12.6-12.1s11.4-4.4 18.1-4.4c10.7 0 18.9 2.5 24.7 7.4s8.7 12 8.7 21.3c0 3.9-.7 7.7-2.2 11.4s-3.7 7.6-6.8 11.6c-3.1 4.1-8 9.5-14.8 16.3l-12.8 14.8h38.9v17.7h-68.9v-14.9l31.8-33.4c7.8-8.9 11.8-16 11.8-21.3 0-4.3-.9-7.5-2.8-9.7s-4.6-3.3-8.1-3.3-6.3 1.5-8.5 4.5-3.3 6.7-3.3 11.1h-23c.1-6.2 1.6-11.8 4.6-17zm71.2 135.2c-1.5 5.4-6.4 10.9-11.7 15.9-2.5 2.4-5 4.6-7.4 6.9-7.4 7-14.8 14.3-20.3 23-5.5-8.7-12.9-16-20.3-23-2.4-2.2-4.8-4.5-7.4-6.9-5.3-5-10.2-10.5-11.7-15.9-.7-2.8-.8-5.7-.2-8.5 3.2-15.7 21-22.1 33.2-12.2 2.6 2.2 4.8 4.8 6.4 7.8 1.6-3 3.8-5.6 6.4-7.8 12.2-9.9 30-3.5 33.2 12.2.6 2.8.5 5.7-.2 8.5zm224 161c-4.2 15.2-18.1 30.6-33 44.7-7.1 6.8-14 13-20.7 19.3-21 19.6-41.6 40.3-57.1 64.6-15.6-24.4-36.2-45-57.2-64.6-6.7-6.3-13.6-12.6-20.7-19.3-14.9-14.1-28.8-29.5-33-44.7-2.1-7.9-2.3-16.1-.6-24 9-44.1 58.9-62.2 93.4-34.3 7.3 6.1 13.4 13.5 18 21.9 4.5-8.4 10.6-15.8 18-21.9 34.4-28 84.4-9.9 93.4 34.3 1.7 7.9 1.5 16.1-.5 24z" fill="url(#_54_00000026154159158295631160000018406894639228505746_)"/></g></svg>