<svg id="Layer_2_00000174573786870827707530000008523768492223091364_" enable-background="new 0 0 512 512" viewBox="0 0 512 512" xmlns="http://www.w3.org/2000/svg" xmlns:xlink="http://www.w3.org/1999/xlink"><linearGradient id="_57_00000006696796812133300670000000336803188878878126_" gradientTransform="matrix(1 0 0 -1 0 512)" gradientUnits="userSpaceOnUse" x1="42.821" x2="469.179" y1="469.179" y2="42.821"><stop offset="0" stop-color="#fe5b42"/><stop offset="1" stop-color="#ba0000"/></linearGradient><g id="Icon"><path id="_57" d="m416 0h-320c-13.8 0-25 11.2-25 25v462c0 13.8 11.2 25 25 25h320c13.8 0 25-11.2 25-25v-462c0-13.8-11.2-25-25-25zm-274.2 78c-5.4 0-9.3 1.7-12 5.2l-18.2-4.3 6-50.6h57.8v17.8h-39.2l-2.2 19.7c1.6-1 3.8-1.8 6.4-2.5s5.2-1.1 7.8-1.1c9.8 0 17.4 2.9 22.7 8.7s7.9 14 7.9 24.5c0 6.3-1.4 12.1-4.2 17.2s-6.8 9.1-11.9 11.9-11.2 4.1-18.1 4.1c-6.2 0-12-1.3-17.5-3.8s-9.7-6.1-12.8-10.5-4.6-9.5-4.6-15.1h23c.2 3.6 1.4 6.5 3.5 8.6s4.8 3.2 8.2 3.2c7.7 0 11.6-5.7 11.6-17.1-.1-10.6-4.8-15.9-14.2-15.9zm41.9 100.4c-1.5 5.4-6.4 10.9-11.7 15.9-2.5 2.4-5 4.6-7.4 6.9-7.4 7-14.8 14.3-20.3 23-5.5-8.7-12.9-16-20.3-23-2.4-2.2-4.8-4.5-7.4-6.9-5.3-5-10.2-10.5-11.7-15.9-.7-2.8-.8-5.7-.2-8.5 3.2-15.7 21-22.1 33.2-12.2 2.6 2.2 4.8 4.8 6.4 7.8 1.6-3 3.8-5.6 6.4-7.8 12.2-9.9 30-3.5 33.2 12.2.6 2.8.5 5.7-.2 8.5zm224 161c-4.2 15.2-18.1 30.6-33 44.7-7.1 6.8-14 13-20.7 19.3-21 19.6-41.6 40.3-57.1 64.6-15.6-24.4-36.2-45-57.2-64.6-6.7-6.3-13.6-12.6-20.7-19.3-14.9-14.1-28.8-29.5-33-44.7-2.1-7.9-2.3-16.1-.6-24 9-44.1 58.9-62.2 93.4-34.3 7.3 6.1 13.4 13.5 18 21.9 4.5-8.4 10.6-15.8 18-21.9 34.4-28 84.4-9.9 93.4 34.3 1.7 7.9 1.5 16.1-.5 24z" fill="url(#_57_00000006696796812133300670000000336803188878878126_)"/></g></svg>