<svg id="Layer_2_00000171711645299071515640000012030674319398006144_" enable-background="new 0 0 512 512" viewBox="0 0 512 512" xmlns="http://www.w3.org/2000/svg" xmlns:xlink="http://www.w3.org/1999/xlink"><linearGradient id="_71_00000092423247174291025790000016877846177914754212_" gradientTransform="matrix(1 0 0 -1 0 512)" gradientUnits="userSpaceOnUse" x1="42.821" x2="469.179" y1="469.179" y2="42.821"><stop offset="0" stop-color="#454545"/><stop offset="1"/></linearGradient><g id="Icon"><path id="_71" d="m416 0h-320c-13.8 0-25 11.2-25 25v462c0 13.8 11.2 25 25 25h320c13.8 0 25-11.2 25-25v-462c0-13.8-11.2-25-25-25zm-262.4 88.3c-2.5-2.1-5.9-3.1-10.3-3.1h-11.1v-17h10.8c8.6 0 12.9-4.2 12.9-12.6 0-3.3-1-5.9-3.1-8-2-2.1-4.9-3.1-8.6-3.1-3 0-5.7.9-7.9 2.7s-3.4 4-3.4 6.6h-22.9c0-5.2 1.5-9.9 4.4-13.9 2.9-4.1 6.9-7.3 12.1-9.5 5.1-2.3 10.8-3.4 17-3.4 11 0 19.7 2.5 26 7.5s9.4 11.9 9.4 20.7c0 4.3-1.3 8.3-3.9 12.1s-6.4 6.8-11.4 9.2c5.3 1.9 9.4 4.8 12.4 8.7s4.5 8.7 4.5 14.4c0 8.8-3.4 15.9-10.2 21.2s-15.7 7.9-26.8 7.9c-6.5 0-12.5-1.2-18-3.7-5.6-2.5-9.8-5.9-12.6-10.3s-4.3-9.3-4.3-14.9h23c0 3 1.2 5.7 3.7 7.9s5.5 3.3 9 3.3c4 0 7.2-1.1 9.6-3.4 2.4-2.2 3.6-5.1 3.6-8.6-.2-5-1.4-8.6-3.9-10.7zm23.4 121.4c-7.9 7.4-20.3 7-27.7-.9 3.8 7 8.1 13.3 13.6 15.2v4.5h-37.1v-4.5c5.4-1.9 9.8-8.2 13.6-15.2-7.4 7.9-19.8 8.3-27.7.9s-8.3-19.8-.9-27.7c3.7-3.9 8.9-6.2 14.3-6.2h1.2c-4.2-10 .5-21.5 10.4-25.7 2.5-1.1 5.1-1.6 7.6-1.6s5.1.5 7.6 1.6c10 4.2 14.7 15.7 10.4 25.7h1.2c5.4 0 10.6 2.2 14.3 6.2 7.5 7.8 7.1 20.2-.8 27.7zm211.9 217.7c-22.2 20.9-57.1 19.8-78-2.4 10.7 19.7 22.9 37.3 38.2 42.8v12.6h-104.4v-12.6c15.3-5.5 27.5-23.1 38.2-42.8-20.9 22.2-55.8 23.3-78 2.4s-23.3-55.8-2.4-78c10.4-11.1 24.9-17.4 40.1-17.4 1.2 0 2.3 0 3.5.1-11.9-28.1 1.3-60.5 29.4-72.3 7-3 14.3-4.4 21.4-4.4s14.4 1.4 21.4 4.4c28.1 11.9 41.2 44.2 29.3 72.3 1.1-.1 2.3-.1 3.5-.1 15.2 0 29.7 6.3 40.2 17.4 20.9 22.2 19.8 57.1-2.4 78z" fill="url(#_71_00000092423247174291025790000016877846177914754212_)"/></g></svg>