<svg id="Layer_2_00000183230315265153980560000007564712227296145084_" enable-background="new 0 0 512 512" viewBox="0 0 512 512" xmlns="http://www.w3.org/2000/svg" xmlns:xlink="http://www.w3.org/1999/xlink"><linearGradient id="_98_00000006706633081593920540000003455700919452434339_" gradientTransform="matrix(1 0 0 -1 0 512)" gradientUnits="userSpaceOnUse" x1="42.821" x2="469.179" y1="469.179" y2="42.821"><stop offset="0" stop-color="#fe5b42"/><stop offset="1" stop-color="#ba0000"/></linearGradient><g id="Icon"><path id="_98" d="m350.3 209.9c4.8.4 9.6-.3 14.1-2-.4 4.8.3 9.6 2 14.1-4.8-.2-9.6.4-14.1 2 .2-4.8-.5-9.6-2-14.1zm22.2 29.4c4.5-1.6 9.3-2.2 14.1-2-1.7-4.5-2.3-9.3-2-14.1-4.5 1.7-9.3 2.3-14.1 2 1.6 4.5 2.3 9.3 2 14.1zm-228.2-193.7c-6.3 0-11 2.5-14.2 7.5s-4.8 12.4-4.8 22.1v4.6c0 9.7 1.6 17.2 4.8 22.4s8 7.8 14.3 7.8 10.7-2.6 14-7.7 4.9-12.5 4.9-22.1v-4.6c0-9.8-1.6-17.3-4.9-22.4s-8-7.6-14.1-7.6zm103.5 316.1c-1.6 0-2.9 1.3-2.9 2.9s1.3 2.9 2.9 2.9 2.9-1.3 2.9-2.9-1.4-2.9-2.9-2.9zm84.2-153c4.5-1.6 9.3-2.2 14.1-2-1.7-4.5-2.3-9.3-2-14.1-4.5 1.7-9.3 2.3-14.1 2 1.6 4.5 2.2 9.3 2 14.1zm109-183.7v462c0 13.8-11.2 25-25 25h-320c-13.8 0-25-11.2-25-25v-462c0-13.8 11.2-25 25-25h320c13.8 0 25 11.2 25 25zm-136.6 125.1 95.9 75.2c.5-.5.9-.9 1.3-1.5 9-11.9-5.6-38-32.5-58.3-26.6-20.1-55.5-26.9-64.7-15.4zm-44.9 29.3 119.4 87.4c1.6-2.8 3.4-5.4 5.4-7.9l-117.6-88.3zm86.4 124c0-15.6 4.1-31 10.9-44l-4.8-3.6c-7.1 13.8-11.8 31-11.8 47.6 0 10.9 1.8 21.4 5 31.2h6.1c-3.5-9.8-5.4-20.3-5.4-31.2zm5.7 0c0 11 2 21.5 5.7 31.2h6.2c-3.9-9.6-6.1-20.2-6.1-31.2 0-13.2 3.1-25.9 8.7-37.1l-4.6-3.5c-6.3 12.2-9.9 25.9-9.9 40.6zm18.1 31.2h6.4c-4.6-9.4-7.2-20-7.2-31.2s2.6-22 7.3-31.5l-4.7-3.4c-5.4 10.5-8.4 22.4-8.4 35 0 11 2.3 21.6 6.6 31.1zm-77.1-24.4-11.9-8.8-6.5 4.6-6.5-4.6-11.9 8.8zm-32.3 5.7c3 2.7 6.2 6.2 13.9 6.2s10.9-3.5 13.9-6.2zm47.3-46.5c6.7-1.2 8.9-5.4 9.4-6.4h-13.2v-5.4h7.1c4.4 1.7 6.2 4.4 6.7 5.2h11.3c-14.1-22.4-49.5-15.6-49.5-15.6 9 7.8 10.7 22.3 10.7 22.3h17.5zm-28-28c.3-.1 31.9-6.2 47.6 10.8.6.6 1.3.9 2.1.9.7 0 1.4-.2 2-.8 1.2-1.1 1.2-2.9.2-4-17.9-19.4-51.5-12.8-53-12.5-1.6.3-2.6 1.8-2.2 3.4.3 1.5 1.8 2.6 3.3 2.2zm17 51.4c0 10.5 8.5 18.9 18.9 18.9s18.9-8.5 18.9-18.9-8.5-18.9-18.9-18.9-18.9 8.4-18.9 18.9zm-47.5-100.7c4.1-1.1 8-2.6 11.7-4.4l-5-3.8zm-11 13.5c11.9-.9 23-4.6 32.7-10.3l-5-3.8c-6.9 3.8-14.5 6.4-22.5 7.7zm-9.5 11.7c1.1.1 2.1.1 3.1.1 18 0 34.8-5.4 48.8-14.6l-4.9-3.7c-12.3 7.7-26.9 12.3-42.4 12.6zm-8.9 10.8c3.9.5 7.9.7 12 .7 21.8 0 41.9-6.9 58.4-18.7l-4.8-3.7c-15.2 10.5-33.7 16.7-53.6 16.7-2.6 0-5.1-.1-7.6-.3zm-3.6 62.9c0 12.2 0 32.4 12.1 52.7-5.6 5.2-9 12.6-9 20.9 0 15.8 12.8 28.6 28.6 28.6 11.3 0 21.1-6.6 25.8-16.2 4.6 9.6 14.4 16.2 25.8 16.2 15.8 0 28.6-12.9 28.6-28.6s-12.9-28.6-28.6-28.6c-1 0-1.9 0-2.9.1v-4.2c0-1.6-1.3-2.9-2.9-2.9s-2.9 1.3-2.9 2.9v32.8c0 4.7 3.9 8.6 8.6 8.6s8.6-3.9 8.6-8.6-3.9-8.6-8.6-8.6c-1 0-2 .2-2.9.5v-4.2c.9-.2 1.9-.3 2.9-.3 6.9 0 12.6 5.6 12.6 12.6s-5.7 12.6-12.6 12.6c-7 0-12.6-5.7-12.6-12.6v-32.8c0-1.6-1.3-2.9-2.9-2.9s-2.9 1.3-2.9 2.9v32.8c0 10.1 8.2 18.3 18.3 18.3s18.3-8.2 18.3-18.3-8.2-18.3-18.3-18.3c-1 0-1.9.1-2.9.2v-4.6c.9-.1 1.9-.2 2.9-.2 12.6 0 22.9 10.3 22.9 22.9s-10.3 22.9-22.9 22.9-22.9-10.2-22.9-22.8v-32.9c0-1.6-1.3-2.9-2.9-2.9s-2.9 1.3-2.9 2.9v32.9c-.1 12.6-10.3 22.8-22.9 22.8s-22.9-10.3-22.9-22.9 10.3-22.9 22.9-22.9c1 0 1.9.1 2.9.2v4.6c-.9-.1-1.9-.2-2.9-.2-10.1 0-18.3 8.2-18.3 18.3s8.2 18.3 18.3 18.3 18.3-8.2 18.3-18.3v-32.8c0-1.6-1.3-2.9-2.9-2.9s-2.9 1.3-2.9 2.9v32.8c0 7-5.7 12.6-12.6 12.6s-12.6-5.7-12.6-12.6 5.6-12.6 12.6-12.6c1 0 1.9.1 2.9.3v4.2c-.9-.3-1.9-.5-2.9-.5-4.7 0-8.6 3.9-8.6 8.6s3.9 8.6 8.6 8.6 8.6-3.9 8.6-8.6v-32.8c0-1.6-1.3-2.9-2.9-2.9s-2.9 1.3-2.9 2.9v4.2c-.9-.1-1.9-.1-2.9-.1-5.5 0-10.7 1.6-15.1 4.3-5.5-9.3-8.2-18.6-9.6-27.1s-1.4-16.1-1.4-22.1c0-13.3 4.9-41.4 16.9-48.7 4.5-2.8 10.2-3 15.4-.5 3.8 1.8 6.7 4.7 8.3 8.3-6.3-4.3-15.1-5.3-20.5-3.6-3.1 1-7.6 5.4-8.4 10.6-.9 6 2.6 12.3 2.6 12.3h17.5c6.7-1.2 8.9-5.4 9.4-6.4h-13.2v-5.4h7.1c3.9 1.5 5.8 3.8 6.5 4.9-.8 4.5-2.4 8.8-3.9 12.8-1.7 4.4-3.1 7.1-3.1 10.5.1 4.4 2 6.5 3.7 7.5 3.7 2.3 9 .9 11.9-.1 3.5 3.2 9.6 6.4 15.1 1.9 3.7-3 3.5-7.1 2.8-9.1-.5-1.5-2.2-2.3-3.7-1.8s-2.3 2.1-1.8 3.6c.1.4.4 1.7-1.1 2.8-3.6 3-8.3-2.5-8.5-2.7-.8-1-2.3-1.3-3.4-.8-2 1-6.5 2.3-8.3 1.2-.6-.4-1-1.3-1-2.7 0-2.3 1.3-4.6 2.7-8.3 2.5-6.6 5.7-14.9 4.4-23.9-1-7.2-5.8-13.5-12.7-16.8-6.9-3.2-14.7-2.9-20.9.8-7.4 4.6-12.3 14.6-15.4 25.2-2.4 10.4-3.6 21.6-3.6 28.3zm15.6-17.1v37.8c10.4 0 18.9-8.5 18.9-18.9s-8.4-18.9-18.9-18.9zm-47.4-85.4c-16-10.3-29.6-23.9-39.9-39.9-10.3 16-23.9 29.6-39.9 39.9 15.7 10.7 29.3 24.2 39.9 40 10.6-15.8 24.1-29.4 39.9-40zm3.3-113.3c-.1-9.5-1.9-18-5.5-25.3-3.6-7.4-8.8-13-15.3-17-6.6-4-14.1-6-22.4-6s-16.1 2-22.7 6-11.7 9.7-15.2 17.1c-3.6 7.4-5.3 15.9-5.3 25.7v5.3c.1 9.4 2 17.8 5.7 25s8.7 12.8 15.3 16.7c6.5 3.9 14 5.9 22.4 5.9 2 0 4-.1 6-.4l21.3 17.1 14.8-12.5-16-12.6c5.4-4.1 9.5-9.6 12.6-16.4 3-6.8 4.5-14.8 4.5-24zm221.1 265.1h-84.9c6.2 6.2 10 14.8 10 24.2 0 19-15.4 34.4-34.4 34.4-9.9 0-19.3-4.4-25.8-11.7-6.5 7.3-15.9 11.7-25.8 11.7-19 0-34.4-15.4-34.4-34.4v32.3c0 53.9 43.7 97.6 97.6 97.6 27 0 51.4-10.9 69.1-28.6s28.6-42.1 28.6-69zm0-65.9c-7 7.6-11.2 17.8-11.2 29s4.2 21.3 11.2 28.9v-9.5c-3.5-5.7-5.5-12.3-5.5-19.4s2-13.8 5.5-19.4zm0-15.3c-13.7 9.9-22.7 26-22.7 44.2 0 11.6 3.7 22.4 9.9 31.2h7.2c-7.1-8.5-11.4-19.4-11.4-31.2 0-14.7 6.6-28 16.9-36.9v-7.3zm0-13.5c-20.3 11.2-34.1 32.9-34.1 57.7 0 11.3 2.9 22 7.9 31.2h6.6c-5.6-9.1-8.8-19.8-8.8-31.2 0-21.5 11.4-40.4 28.4-51.1zm0-6.5-120.7-94.6-17.7 21.6 117.1 89.1c5.3-5.9 11.3-10.7 18.5-14.6zm-109.4 128.3c1.6 0 2.9-1.3 2.9-2.9s-1.3-2.9-2.9-2.9-2.9 1.3-2.9 2.9 1.4 2.9 2.9 2.9zm12.5-173.9c4.5-1.6 9.3-2.2 14.1-2-1.7-4.5-2.3-9.3-2-14.1-4.5 1.7-9.3 2.3-14.1 2 1.5 4.5 2.2 9.3 2 14.1zm-20.3-15.3c4.5-1.6 9.3-2.2 14.1-2-1.7-4.5-2.3-9.3-2-14.1-4.5 1.7-9.3 2.3-14.1 2 1.6 4.5 2.2 9.3 2 14.1z" fill="url(#_98_00000006706633081593920540000003455700919452434339_)"/></g></svg>