<svg id="Layer_2_00000102521695360312022070000006077209788563433397_" enable-background="new 0 0 512 512" viewBox="0 0 512 512" xmlns="http://www.w3.org/2000/svg" xmlns:xlink="http://www.w3.org/1999/xlink"><linearGradient id="_89_00000049935014384388514930000000726131139981093813_" gradientTransform="matrix(1 0 0 -1 0 512)" gradientUnits="userSpaceOnUse" x1="42.821" x2="469.179" y1="469.179" y2="42.821"><stop offset="0" stop-color="#fe5b42"/><stop offset="1" stop-color="#ba0000"/></linearGradient><g id="Icon"><path id="_89" d="m416 0h-320c-13.8 0-25 11.2-25 25v462c0 13.8 11.2 25 25 25h320c13.8 0 25-11.2 25-25v-462c0-13.8-11.2-25-25-25zm-274.2 78c-5.4 0-9.3 1.7-12 5.2l-18.2-4.3 6-50.6h57.8v17.8h-39.2l-2.2 19.7c1.6-1 3.8-1.8 6.4-2.5s5.2-1.1 7.8-1.1c9.8 0 17.4 2.9 22.7 8.7s7.9 14 7.9 24.5c0 6.3-1.4 12.1-4.2 17.2s-6.8 9.1-11.9 11.9-11.2 4.1-18.1 4.1c-6.2 0-12-1.3-17.5-3.8s-9.7-6.1-12.8-10.5-4.6-9.5-4.6-15.1h23c.2 3.6 1.4 6.5 3.5 8.6s4.8 3.2 8.2 3.2c7.7 0 11.6-5.7 11.6-17.1-.1-10.6-4.8-15.9-14.2-15.9zm2.5 150.5c-10.7-15.8-24.2-29.3-40-40 16-10.3 29.6-23.9 39.9-39.9 10.3 16 23.9 29.6 39.9 39.9-15.6 10.6-29.2 24.2-39.8 40zm152.6 251.8c-.1 0-.1 0 0 0-30-44.3-68.1-82.5-112.4-112.5 45.1-29 83.4-67.3 112.4-112.4 29 45.1 67.3 83.4 112.4 112.4-44.3 30-82.5 68.2-112.4 112.5z" fill="url(#_89_00000049935014384388514930000000726131139981093813_)"/></g></svg>