<svg id="Layer_2_00000081639724999577040010000000565165533571461030_" enable-background="new 0 0 512 512" viewBox="0 0 512 512" xmlns="http://www.w3.org/2000/svg" xmlns:xlink="http://www.w3.org/1999/xlink"><linearGradient id="_94_00000058549997935497810320000008058978212455531949_" gradientTransform="matrix(1 0 0 -1 0 512)" gradientUnits="userSpaceOnUse" x1="42.821" x2="469.179" y1="469.179" y2="42.821"><stop offset="0" stop-color="#fe5b42"/><stop offset="1" stop-color="#ba0000"/></linearGradient><g id="Icon"><path id="_94" d="m416 0h-320c-13.8 0-25 11.2-25 25v462c0 13.8 11.2 25 25 25h320c13.8 0 25-11.2 25-25v-462c0-13.8-11.2-25-25-25zm-256 68.7c0-13.4 3-23.7 9-30.9s14.5-10.9 25.4-10.9 19.6 3.6 25.6 10.9 9 17.6 9 30.9v18c0 13.4-3 23.7-9 30.9s-14.5 10.9-25.4 10.9-19.5-3.7-25.6-10.9-9-17.6-9-30.9zm-62.1-25.4 43.4-15h2.1v99h-23v-73.2l-22.4 6.6zm46.4 185.2c-10.7-15.8-24.2-29.3-40-40 16-10.3 29.6-23.9 39.9-39.9 10.3 16 23.9 29.6 39.9 39.9-15.6 10.6-29.2 24.2-39.8 40zm152.6 251.8c-.1 0-.1 0 0 0-30-44.3-68.1-82.5-112.4-112.5 45.1-29 83.4-67.3 112.4-112.4 29 45.1 67.3 83.4 112.4 112.4-44.3 30-82.5 68.2-112.4 112.5zm-111.1-374.5c-1.9-3.4-2.8-8.8-2.8-16.2v-25.3c.1-6.6 1.1-11.5 2.9-14.8s4.7-4.9 8.6-4.9 7 1.8 8.8 5.3c1.9 3.5 2.8 8.8 2.8 15.9v24.5c0 7.1-1 12.3-2.9 15.7-1.9 3.3-4.7 5-8.6 5-3.8-.1-6.9-1.8-8.8-5.2z" fill="url(#_94_00000058549997935497810320000008058978212455531949_)"/></g></svg>