<svg id="Layer_2_00000021824065746357522980000003745528820233517696_" enable-background="new 0 0 512 512" viewBox="0 0 512 512" xmlns="http://www.w3.org/2000/svg" xmlns:xlink="http://www.w3.org/1999/xlink"><linearGradient id="_60_00000157990852297358429690000009911285843066590862_" gradientTransform="matrix(1 0 0 -1 0 512)" gradientUnits="userSpaceOnUse" x1="42.821" x2="469.179" y1="469.179" y2="42.821"><stop offset="0" stop-color="#fe5b42"/><stop offset="1" stop-color="#ba0000"/></linearGradient><g id="Icon"><path id="_60" d="m137.3 64.5c-1.6-2.2-2.5-5-2.5-8.6s.8-6.4 2.4-8.4 3.9-3 7-3 5.6 1 7.2 3.1c1.6 2 2.4 4.8 2.4 8.4s-.8 6.4-2.3 8.6c-1.6 2.2-3.9 3.3-7 3.3s-5.6-1.2-7.2-3.4zm7.2 46.4c3.4 0 6.1-1.1 8.2-3.4s3.1-5.4 3.1-9.4-1.1-7.2-3.2-9.4-4.9-3.3-8.3-3.3-6.2 1.1-8.4 3.3c-2.1 2.2-3.2 5.3-3.2 9.4s1.1 7.1 3.2 9.3 5.1 3.5 8.6 3.5zm296.5-85.9v462c0 13.8-11.2 25-25 25h-320c-13.8 0-25-11.2-25-25v-462c0-13.8 11.2-25 25-25h320c13.8 0 25 11.2 25 25zm-315.6 51.2c-5 2.4-8.8 5.6-11.5 9.7s-4.1 8.8-4.1 14.1c0 8.8 3.1 15.8 9.3 20.9s14.7 7.7 25.4 7.7 19.1-2.6 25.2-7.7 9.1-12.1 9.1-20.9c0-5.5-1.4-10.2-4.1-14.2-2.8-4-6.5-7.2-11.2-9.5 4.2-2.2 7.4-5.2 9.8-8.8 2.4-3.7 3.6-7.9 3.6-12.7 0-8.6-2.9-15.4-8.8-20.4-5.8-5-13.8-7.5-23.8-7.5s-17.8 2.5-23.7 7.5c-5.8 5-8.8 11.8-8.8 20.4 0 4.8 1.2 9 3.6 12.7 2.5 3.6 5.8 6.5 10 8.7zm58.5 93.6c-3.2-15.7-21-22.1-33.2-12.2-2.6 2.2-4.8 4.8-6.4 7.8-1.6-3-3.8-5.6-6.4-7.8-12.2-9.9-30-3.5-33.2 12.2-.6 2.8-.5 5.7.2 8.5 1.5 5.4 6.4 10.9 11.7 15.9 2.5 2.4 5 4.6 7.4 6.9 7.5 7 14.8 14.3 20.3 23 5.5-8.6 12.8-16 20.3-23 2.4-2.2 4.8-4.5 7.4-6.9 5.3-5 10.2-10.5 11.7-15.9.7-2.7.8-5.7.2-8.5zm224.3 145.6c-9-44.1-59-62.2-93.4-34.3-7.3 6.1-13.4 13.5-18 21.9-4.6-8.4-10.7-15.8-18-21.9-34.4-28-84.4-9.9-93.4 34.3-1.7 7.9-1.5 16.2.6 24 4.1 15.2 18 30.6 33 44.7 7.1 6.8 14 13 20.7 19.3 21 19.6 41.6 40.2 57.2 64.6 15.5-24.3 36.1-45 57.1-64.6 6.7-6.3 13.6-12.6 20.7-19.3 14.9-14.1 28.8-29.5 33-44.7 2.1-7.9 2.2-16.1.5-24z" fill="url(#_60_00000157990852297358429690000009911285843066590862_)"/></g></svg>