<svg id="Layer_2_00000004524171080432787950000000060573206284932261_" enable-background="new 0 0 512 512" viewBox="0 0 512 512" xmlns="http://www.w3.org/2000/svg" xmlns:xlink="http://www.w3.org/1999/xlink"><linearGradient id="_69_00000026161379069781947630000008545143080323854778_" gradientTransform="matrix(1 0 0 -1 0 512)" gradientUnits="userSpaceOnUse" x1="42.821" x2="469.179" y1="469.179" y2="42.821"><stop offset="0" stop-color="#454545"/><stop offset="1"/></linearGradient><g id="Icon"><path id="_69" d="m154.8 90.3h-21.3l10.7-34.3zm286.2-65.3v462c0 13.8-11.2 25-25 25h-320c-13.8 0-25-11.2-25-25v-462c0-13.8 11.2-25 25-25h320c13.8 0 25 11.2 25 25zm-344.3 102.2h25.5l5.7-18.5h32.7l5.8 18.5h25.6l-36.6-99h-22.4zm81.2 54.7c-3.7-3.9-8.9-6.2-14.3-6.2-.4 0-.8 0-1.2 0 4.2-10-.4-21.5-10.4-25.7-2.5-1.1-5.1-1.6-7.6-1.6s-5.1.5-7.6 1.6c-10 4.2-14.6 15.7-10.4 25.7-.4 0-.8 0-1.2 0-5.4 0-10.6 2.2-14.3 6.2-7.4 7.9-7 20.3.9 27.7s20.3 7 27.7-.9c-3.8 7-8.1 13.3-13.6 15.2v4.5h37.1v-4.4c-5.4-1.9-9.8-8.2-13.6-15.2 7.4 7.9 19.8 8.3 27.7.9s8.2-19.9.8-27.8zm213.4 167.5c-10.4-11.1-24.9-17.4-40.2-17.4-1.2 0-2.3 0-3.5.1 11.9-28.1-1.3-60.5-29.3-72.3-7-3-14.3-4.4-21.4-4.4-7.2 0-14.4 1.4-21.4 4.4-28.1 11.9-41.2 44.2-29.3 72.3-1.1-.1-2.3-.1-3.5-.1-15.2 0-29.7 6.3-40.1 17.4-20.9 22.2-19.8 57.1 2.4 78s57.1 19.8 78-2.4c-10.7 19.7-22.9 37.3-38.2 42.8v12.6h104.2v-12.6c-15.3-5.5-27.5-23.1-38.2-42.8 20.9 22.2 55.8 23.3 78 2.4s23.4-55.8 2.5-78z" fill="url(#_69_00000026161379069781947630000008545143080323854778_)"/></g></svg>