<svg id="Layer_2_00000022536903542785958260000008621693483108723383_" enable-background="new 0 0 512 512" viewBox="0 0 512 512" xmlns="http://www.w3.org/2000/svg" xmlns:xlink="http://www.w3.org/1999/xlink"><linearGradient id="_76_00000178182695214038149420000010181665522882412468_" gradientTransform="matrix(1 0 0 -1 0 512)" gradientUnits="userSpaceOnUse" x1="42.821" x2="469.179" y1="469.179" y2="42.821"><stop offset="0" stop-color="#454545"/><stop offset="1"/></linearGradient><g id="Icon"><path id="_76" d="m137.3 64.5c-1.6-2.2-2.5-5-2.5-8.6s.8-6.4 2.4-8.4 3.9-3 7-3 5.6 1 7.2 3.1c1.6 2 2.4 4.8 2.4 8.4s-.8 6.4-2.3 8.6c-1.6 2.2-3.9 3.3-7 3.3s-5.6-1.2-7.2-3.4zm7.2 46.4c3.4 0 6.1-1.1 8.2-3.4s3.1-5.4 3.1-9.4-1.1-7.2-3.2-9.4-4.9-3.3-8.3-3.3-6.2 1.1-8.4 3.3c-2.1 2.2-3.2 5.3-3.2 9.4s1.1 7.1 3.2 9.3 5.1 3.5 8.6 3.5zm296.5-85.9v462c0 13.8-11.2 25-25 25h-320c-13.8 0-25-11.2-25-25v-462c0-13.8 11.2-25 25-25h320c13.8 0 25 11.2 25 25zm-315.6 51.2c-5 2.4-8.8 5.6-11.5 9.7s-4.1 8.8-4.1 14.1c0 8.8 3.1 15.8 9.3 20.9s14.7 7.7 25.4 7.7 19.1-2.6 25.2-7.7 9.1-12.1 9.1-20.9c0-5.5-1.4-10.2-4.1-14.2-2.8-4-6.5-7.2-11.2-9.5 4.2-2.2 7.4-5.2 9.8-8.8 2.4-3.7 3.6-7.9 3.6-12.7 0-8.6-2.9-15.4-8.8-20.4-5.8-5-13.8-7.5-23.8-7.5s-17.8 2.5-23.7 7.5c-5.8 5-8.8 11.8-8.8 20.4 0 4.8 1.2 9 3.6 12.7 2.5 3.6 5.8 6.5 10 8.7zm52.5 105.7c-3.7-3.9-8.9-6.2-14.3-6.2-.4 0-.8 0-1.2 0 4.2-10-.4-21.5-10.4-25.7-2.5-1.1-5.1-1.6-7.6-1.6s-5.1.5-7.6 1.6c-10 4.2-14.6 15.7-10.4 25.7-.4 0-.8 0-1.2 0-5.4 0-10.6 2.2-14.3 6.2-7.4 7.9-7 20.3.9 27.7s20.3 7 27.7-.9c-3.8 7-8.1 13.3-13.6 15.2v4.5h37.1v-4.4c-5.4-1.9-9.8-8.2-13.6-15.2 7.4 7.9 19.8 8.3 27.7.9s8.2-19.9.8-27.8zm213.4 167.5c-10.4-11.1-24.9-17.4-40.2-17.4-1.2 0-2.3 0-3.5.1 11.9-28.1-1.3-60.5-29.3-72.3-7-3-14.3-4.4-21.4-4.4-7.2 0-14.4 1.4-21.4 4.4-28.1 11.9-41.2 44.2-29.3 72.3-1.1-.1-2.3-.1-3.5-.1-15.2 0-29.7 6.3-40.1 17.4-20.9 22.2-19.8 57.1 2.4 78s57.1 19.8 78-2.4c-10.7 19.7-22.9 37.3-38.2 42.8v12.6h104.2v-12.6c-15.3-5.5-27.5-23.1-38.2-42.8 20.9 22.2 55.8 23.3 78 2.4s23.4-55.8 2.5-78z" fill="url(#_76_00000178182695214038149420000010181665522882412468_)"/></g></svg>