<svg id="Layer_2_00000172413176694539154670000005002661120968006316_" enable-background="new 0 0 512 512" viewBox="0 0 512 512" xmlns="http://www.w3.org/2000/svg" xmlns:xlink="http://www.w3.org/1999/xlink"><linearGradient id="_99_00000085227345988581716820000006661611319234841008_" gradientTransform="matrix(1 0 0 -1 0 512)" gradientUnits="userSpaceOnUse" x1="42.821" x2="469.179" y1="469.179" y2="42.821"><stop offset="0" stop-color="#fe5b42"/><stop offset="1" stop-color="#ba0000"/></linearGradient><g id="Icon"><path id="_99" d="m416 0h-320c-13.8 0-25 11.2-25 25v462c0 13.8 11.2 25 25 25h320c13.8 0 25-11.2 25-25v-462c0-13.8-11.2-25-25-25zm-313.2 28.3h23.9v43.6l8.3-12.6 21.3-31.1h29.5l-33.4 43.8 33.4 55.2h-28.3l-21.1-36.8-9.8 10.7v26.1h-23.9zm41.5 200.2c-10.7-15.8-24.2-29.3-40-40 16-10.3 29.7-23.9 39.9-39.9 10.3 16 23.9 29.6 40 39.9-15.7 10.6-29.3 24.2-39.9 40zm152.6 251.8c-.1 0-.1 0 0 0-30-44.3-68.1-82.5-112.4-112.5 45.1-29 83.4-67.3 112.4-112.4 29 45.1 67.3 83.4 112.4 112.4-44.3 30-82.5 68.2-112.4 112.5z" fill="url(#_99_00000085227345988581716820000006661611319234841008_)"/></g></svg>