<svg id="Layer_2_00000009563597738866141780000012687797570149917346_" enable-background="new 0 0 512 512" viewBox="0 0 512 512" xmlns="http://www.w3.org/2000/svg" xmlns:xlink="http://www.w3.org/1999/xlink"><linearGradient id="_42_00000173127463319164075790000013075108128672347813_" gradientTransform="matrix(1 0 0 -1 0 512)" gradientUnits="userSpaceOnUse" x1="42.821" x2="469.179" y1="469.179" y2="42.821"><stop offset="0" stop-color="#454545"/><stop offset="1"/></linearGradient><g id="Icon"><path id="_42" d="m131.6 92.2v-6.9c1-2 2.5-3.8 4.6-5.2 2-1.4 4.6-2.1 7.6-2.1 3.9 0 7.1 1.5 9.5 4.6s3.6 7 3.6 11.9-1.2 8.6-3.5 11.8c-2.3 3.1-5.2 4.7-8.7 4.7-8.7-.1-13-6.3-13.1-18.8zm309.4-67.2v462c0 13.8-11.2 25-25 25h-320c-13.8 0-25-11.2-25-25v-462c0-13.8 11.2-25 25-25h320c13.8 0 25 11.2 25 25zm-332.3 64.6c.1 7.8 1.7 14.6 4.8 20.5s7.4 10.5 12.9 13.7 11.8 4.8 18.8 4.8c6.5 0 12.4-1.5 17.7-4.4 5.3-3 9.5-7.1 12.4-12.3 3-5.3 4.4-11 4.4-17.3 0-10.2-2.5-18.3-7.6-24.6-5.1-6.2-11.9-9.4-20.5-9.4-7.9 0-14.4 2.5-19.6 7.6 1.3-7.3 4.7-13 10.2-17.1s12.5-6.2 21.1-6.2h1v-18h-3.3c-9.9 0-18.9 2.3-27 6.9s-14.4 11-18.7 19.1c-4.4 8.1-6.6 17.3-6.6 27.5zm73.1 102.3c-1.4-5.1-6.1-10.3-11.2-15.1-2.4-2.3-4.7-4.4-7-6.5-6.8-6.4-14.4-13.9-19.3-21.8-4.9 7.9-12.5 15.4-19.3 21.8-2.3 2.1-4.6 4.2-7 6.5-5.1 4.8-9.8 10-11.2 15.1-.7 2.6-.8 5.4-.2 8.1 3 14.9 19.9 21 31.6 11.6 1.4-1.1 2.6-2.4 3.8-3.9-3.5 8.2-8.5 13.9-15.5 16.4v4.3h35.7v-4.3c-7-2.6-12-8.2-15.5-16.4 1.1 1.4 2.4 2.7 3.8 3.9 11.6 9.4 28.5 3.3 31.6-11.6.5-2.7.4-5.4-.3-8.1zm220.5 185.6c-3.9-14.5-17.2-29.1-31.4-42.5-6.8-6.4-13.3-12.3-19.7-18.3-19.1-17.9-40.4-39.1-54.3-61.3-13.9 22.2-35.2 43.4-54.3 61.3-6.4 6-12.9 12-19.7 18.3-14.2 13.4-27.5 28.1-31.4 42.5-2 7.5-2.1 15.2-.5 22.8 8.6 41.9 56.1 59.1 88.8 32.6 3.9-3.2 7.5-6.8 10.6-10.8-9.9 23.1-23.8 38.9-43.6 46.3v12.1h100.2v-12.1c-19.8-7.3-33.6-23.2-43.6-46.3 3.1 4 6.6 7.6 10.6 10.8 32.7 26.5 80.3 9.3 88.8-32.6 1.7-7.6 1.5-15.4-.5-22.8z" fill="url(#_42_00000173127463319164075790000013075108128672347813_)"/></g></svg>