<svg id="Layer_2_00000101068557112381368450000006726987031030747817_" enable-background="new 0 0 512 512" viewBox="0 0 512 512" xmlns="http://www.w3.org/2000/svg" xmlns:xlink="http://www.w3.org/1999/xlink"><linearGradient id="_41_00000119828868807259188530000017581130653283416716_" gradientTransform="matrix(1 0 0 -1 0 512)" gradientUnits="userSpaceOnUse" x1="42.821" x2="469.179" y1="469.179" y2="42.821"><stop offset="0" stop-color="#454545"/><stop offset="1"/></linearGradient><g id="Icon"><path id="_41" d="m416 0h-320c-13.8 0-25 11.2-25 25v462c0 13.8 11.2 25 25 25h320c13.8 0 25-11.2 25-25v-462c0-13.8-11.2-25-25-25zm-274.2 78c-5.4 0-9.3 1.7-12 5.2l-18.2-4.3 6-50.6h57.8v17.8h-39.2l-2.2 19.7c1.6-1 3.8-1.8 6.4-2.5s5.2-1.1 7.8-1.1c9.8 0 17.4 2.9 22.7 8.7s7.9 14 7.9 24.5c0 6.3-1.4 12.1-4.2 17.2s-6.8 9.1-11.9 11.9-11.2 4.1-18.1 4.1c-6.2 0-12-1.3-17.5-3.8s-9.7-6.1-12.8-10.5-4.6-9.5-4.6-15.1h23c.2 3.6 1.4 6.5 3.5 8.6s4.8 3.2 8.2 3.2c7.7 0 11.6-5.7 11.6-17.1-.1-10.6-4.8-15.9-14.2-15.9zm40.2 122c-3 14.9-19.9 21-31.6 11.6-1.4-1.1-2.7-2.4-3.8-3.9 3.5 8.2 8.5 13.9 15.5 16.4v4.3h-35.6v-4.3c7-2.6 12-8.2 15.5-16.4-1.1 1.4-2.4 2.7-3.8 3.9-11.6 9.4-28.5 3.3-31.6-11.6-.6-2.7-.5-5.4.2-8.1 1.4-5.1 6.1-10.3 11.2-15.1 2.4-2.3 4.7-4.4 7-6.5 6.8-6.4 14.4-13.9 19.3-21.8 4.9 7.9 12.5 15.4 19.3 21.8 2.3 2.1 4.6 4.2 7 6.5 5.1 4.8 9.8 10 11.2 15.1.7 2.7.7 5.4.2 8.1zm220.8 200.2c-8.5 41.9-56.1 59.1-88.8 32.6-3.9-3.2-7.5-6.8-10.6-10.8 9.9 23.1 23.8 38.9 43.6 46.3v12.1h-100.3v-12.1c19.8-7.3 33.6-23.2 43.6-46.3-3.1 4-6.6 7.6-10.6 10.8-32.7 26.5-80.3 9.3-88.8-32.6-1.6-7.5-1.5-15.3.5-22.8 3.9-14.5 17.2-29.1 31.4-42.5 6.8-6.4 13.3-12.3 19.7-18.3 19.1-17.9 40.4-39.1 54.3-61.3 13.9 22.2 35.2 43.4 54.3 61.3 6.4 6 12.9 12 19.7 18.3 14.2 13.4 27.5 28.1 31.4 42.5 2 7.5 2.2 15.3.6 22.8z" fill="url(#_41_00000119828868807259188530000017581130653283416716_)"/></g></svg>