<svg id="Layer_2_00000028287346875109147990000016485962904354658716_" enable-background="new 0 0 512 512" viewBox="0 0 512 512" xmlns="http://www.w3.org/2000/svg" xmlns:xlink="http://www.w3.org/1999/xlink"><linearGradient id="_46_00000130615318334949902820000017942498081099422119_" gradientTransform="matrix(1 0 0 -1 0 512)" gradientUnits="userSpaceOnUse" x1="42.821" x2="469.179" y1="469.179" y2="42.821"><stop offset="0" stop-color="#454545"/><stop offset="1"/></linearGradient><g id="Icon"><path id="_46" d="m185.8 105.8c-1.9-3.4-2.8-8.8-2.8-16.2v-25.3c.1-6.6 1.1-11.5 2.9-14.8s4.7-4.9 8.6-4.9 7 1.8 8.8 5.3c1.9 3.5 2.8 8.8 2.8 15.9v24.5c0 7.1-1 12.3-2.9 15.7-1.9 3.3-4.7 5-8.6 5-3.8-.1-6.9-1.8-8.8-5.2zm255.2-80.8v462c0 13.8-11.2 25-25 25h-320c-13.8 0-25-11.2-25-25v-462c0-13.8 11.2-25 25-25h320c13.8 0 25 11.2 25 25zm-281 61.8c0 13.3 3 23.6 9 30.9s14.5 10.9 25.6 10.9c11 0 19.4-3.6 25.4-10.9 6-7.2 9-17.6 9-30.9v-18c0-13.3-3-23.6-9-30.9s-14.5-10.9-25.5-10.9-19.5 3.6-25.5 10.9-9 17.6-9 30.9zm-62.1-26.1 22.6-6.6v73.1h23v-99h-2.1l-43.4 15zm83.9 131.2c-1.4-5.1-6.1-10.3-11.2-15.1-2.4-2.3-4.7-4.4-7-6.5-6.8-6.4-14.4-13.9-19.3-21.8-4.9 7.9-12.5 15.4-19.3 21.8-2.3 2.1-4.6 4.2-7 6.5-5.1 4.8-9.8 10-11.2 15.1-.7 2.6-.8 5.4-.2 8.1 3 14.9 19.9 21 31.6 11.6 1.4-1.1 2.7-2.4 3.8-3.9-3.5 8.2-8.5 13.9-15.5 16.4v4.3h35.7v-4.3c-7-2.6-12-8.2-15.5-16.4 1.1 1.4 2.4 2.7 3.8 3.9 11.6 9.4 28.6 3.3 31.6-11.6.5-2.7.4-5.4-.3-8.1zm220.5 185.6c-3.9-14.5-17.2-29.1-31.4-42.5-6.8-6.4-13.3-12.3-19.7-18.3-19.1-17.9-40.4-39.1-54.3-61.3-13.9 22.2-35.2 43.4-54.3 61.3-6.4 6-12.9 12-19.7 18.3-14.2 13.4-27.5 28.1-31.4 42.5-2 7.5-2.1 15.2-.5 22.8 8.6 41.9 56.1 59.1 88.8 32.6 3.9-3.2 7.4-6.8 10.5-10.8-9.9 23.1-23.8 38.9-43.6 46.3v12.1h100.3v-12.1c-19.8-7.3-33.6-23.2-43.6-46.3 3.1 4 6.6 7.6 10.5 10.8 32.7 26.5 80.3 9.3 88.8-32.6 1.8-7.6 1.6-15.4-.4-22.8z" fill="url(#_46_00000130615318334949902820000017942498081099422119_)"/></g></svg>