<svg id="Layer_2_00000018220616111366781450000012141130513540289982_" enable-background="new 0 0 512 512" viewBox="0 0 512 512" xmlns="http://www.w3.org/2000/svg" xmlns:xlink="http://www.w3.org/1999/xlink"><linearGradient id="_78_00000101807930899067905200000004611829349124464772_" gradientTransform="matrix(1 0 0 -1 0 512)" gradientUnits="userSpaceOnUse" x1="42.821" x2="469.179" y1="469.179" y2="42.821"><stop offset="0" stop-color="#454545"/><stop offset="1"/></linearGradient><g id="Icon"><path id="_78" d="m185.8 105.8c-1.9-3.4-2.8-8.8-2.8-16.2v-25.3c.1-6.6 1.1-11.5 2.9-14.8s4.7-4.9 8.6-4.9 7 1.8 8.8 5.3c1.9 3.5 2.8 8.8 2.8 15.9v24.5c0 7.1-1 12.3-2.9 15.7-1.9 3.3-4.7 5-8.6 5-3.8-.1-6.9-1.8-8.8-5.2zm255.2-80.8v462c0 13.8-11.2 25-25 25h-320c-13.8 0-25-11.2-25-25v-462c0-13.8 11.2-25 25-25h320c13.8 0 25 11.2 25 25zm-281 61.8c0 13.3 3 23.6 9 30.9s14.5 10.9 25.6 10.9c11 0 19.4-3.6 25.4-10.9 6-7.2 9-17.6 9-30.9v-18c0-13.3-3-23.6-9-30.9s-14.5-10.9-25.5-10.9-19.5 3.6-25.5 10.9-9 17.6-9 30.9zm-62.1-26.1 22.6-6.6v73.1h23v-99h-2.1l-43.4 15zm80 121.2c-3.7-3.9-8.9-6.2-14.3-6.2-.4 0-.8 0-1.2 0 4.2-10-.5-21.5-10.4-25.7-2.5-1.1-5.1-1.6-7.6-1.6s-5.1.5-7.6 1.6c-10 4.2-14.7 15.7-10.4 25.7-.4 0-.8 0-1.2 0-5.4 0-10.6 2.2-14.3 6.2-7.4 7.9-7 20.3.9 27.7s20.3 7 27.7-.9c-3.8 7-8.1 13.3-13.6 15.2v4.5h37.1v-4.4c-5.4-1.9-9.8-8.2-13.6-15.2 7.4 7.9 19.8 8.3 27.7.9s8.2-19.9.8-27.8zm213.4 167.5c-10.4-11.1-24.9-17.4-40.2-17.4-1.2 0-2.3 0-3.5.1 11.9-28.1-1.3-60.5-29.3-72.3-7-3-14.3-4.4-21.4-4.4-7.2 0-14.5 1.4-21.4 4.4-28.1 11.9-41.2 44.2-29.4 72.3-1.1-.1-2.3-.1-3.5-.1-15.2 0-29.7 6.3-40.1 17.4-20.9 22.2-19.8 57.1 2.4 78s57.1 19.8 78-2.4c-10.7 19.7-22.9 37.3-38.2 42.8v12.6h104.3v-12.6c-15.3-5.5-27.5-23.1-38.2-42.8 20.9 22.2 55.8 23.3 78 2.4s23.4-55.8 2.5-78z" fill="url(#_78_00000101807930899067905200000004611829349124464772_)"/></g></svg>