<svg id="Layer_2_00000145052458794952337570000015383500120177434555_" enable-background="new 0 0 512 512" viewBox="0 0 512 512" xmlns="http://www.w3.org/2000/svg" xmlns:xlink="http://www.w3.org/1999/xlink"><linearGradient id="_88_00000004510807655076893490000007478689243734018210_" gradientTransform="matrix(1 0 0 -1 0 512)" gradientUnits="userSpaceOnUse" x1="42.821" x2="469.179" y1="469.179" y2="42.821"><stop offset="0" stop-color="#fe5b42"/><stop offset="1" stop-color="#ba0000"/></linearGradient><g id="Icon"><path id="_88" d="m416 0h-320c-13.8 0-25 11.2-25 25v462c0 13.8 11.2 25 25 25h320c13.8 0 25-11.2 25-25v-462c0-13.8-11.2-25-25-25zm-268.4 28.5v-.2h22.9v60.3h10.1v17.7h-10.1v21h-22.9v-21h-38.3l-1.4-14zm-3.3 200c-10.7-15.8-24.2-29.3-40-40 16-10.3 29.6-23.9 40-39.9 10.3 16 23.9 29.6 39.9 39.9-15.7 10.6-29.3 24.2-39.9 40zm152.6 251.8c-.1 0-.1 0 0 0-30-44.3-68.1-82.5-112.4-112.5 45.1-29 83.4-67.3 112.4-112.4 29 45.1 67.3 83.4 112.4 112.4-44.3 30-82.5 68.2-112.4 112.5zm-149.3-391.7h-17.8l16.4-28.1 1.4-2.3z" fill="url(#_88_00000004510807655076893490000007478689243734018210_)"/></g></svg>