<svg id="Layer_2_00000036935676224391435200000010161704922633218494_" enable-background="new 0 0 512 512" viewBox="0 0 512 512" xmlns="http://www.w3.org/2000/svg" xmlns:xlink="http://www.w3.org/1999/xlink"><linearGradient id="_90_00000179611297232743377840000006582763826235543734_" gradientTransform="matrix(1 0 0 -1 0 512)" gradientUnits="userSpaceOnUse" x1="42.821" x2="469.179" y1="469.179" y2="42.821"><stop offset="0" stop-color="#fe5b42"/><stop offset="1" stop-color="#ba0000"/></linearGradient><g id="Icon"><path id="_90" d="m131.6 92.2v-6.9c1-2 2.5-3.8 4.6-5.2 2-1.4 4.6-2.1 7.6-2.1 3.9 0 7.1 1.5 9.5 4.6s3.6 7 3.6 11.9-1.2 8.6-3.5 11.8c-2.3 3.1-5.2 4.7-8.7 4.7-8.7-.1-13-6.3-13.1-18.8zm309.4-67.2v462c0 13.8-11.2 25-25 25h-320c-13.8 0-25-11.2-25-25v-462c0-13.8 11.2-25 25-25h320c13.8 0 25 11.2 25 25zm-332.3 64.6c.1 7.8 1.7 14.6 4.8 20.5s7.4 10.5 12.9 13.7 11.8 4.8 18.8 4.8c6.5 0 12.4-1.5 17.7-4.4 5.3-3 9.5-7.1 12.4-12.3 3-5.3 4.4-11 4.4-17.3 0-10.2-2.5-18.3-7.6-24.6-5.1-6.2-11.9-9.4-20.5-9.4-7.9 0-14.4 2.5-19.6 7.6 1.3-7.3 4.7-13 10.2-17.1s12.5-6.2 21.1-6.2h1v-18h-3.3c-9.9 0-18.9 2.3-27 6.9s-14.4 11-18.7 19.1c-4.4 8.1-6.6 17.3-6.6 27.5zm75.5 98.9c-16-10.3-29.7-23.9-39.9-39.9-10.3 16-23.9 29.6-39.9 39.9 15.7 10.7 29.3 24.2 39.9 40 10.6-15.8 24.2-29.4 39.9-40zm225 179.3c-45.1-29-83.4-67.3-112.4-112.4-29 45.1-67.3 83.4-112.4 112.4 44.3 30 82.4 68.2 112.3 112.5v.1s0 0 0-.1c30.1-44.3 68.3-82.5 112.5-112.5z" fill="url(#_90_00000179611297232743377840000006582763826235543734_)"/></g></svg>