<svg id="Layer_2_00000110456898714429480730000011232205627359615620_" enable-background="new 0 0 512 512" viewBox="0 0 512 512" xmlns="http://www.w3.org/2000/svg" xmlns:xlink="http://www.w3.org/1999/xlink"><linearGradient id="_82_00000082357035447897946860000012273606260598723519_" gradientTransform="matrix(1 0 0 -1 0 512)" gradientUnits="userSpaceOnUse" x1="42.821" x2="469.179" y1="469.179" y2="42.821"><stop offset="0" stop-color="#454545"/><stop offset="1"/></linearGradient><g id="Icon"><path id="_82" d="m158.4 53.2c3.3 5.1 4.9 12.6 4.9 22.4v4.6c-.1 9.6-1.7 17-4.9 22.1s-7.9 7.7-14 7.7-11.1-2.6-14.3-7.8-4.8-12.7-4.8-22.4v-4.6c0-9.7 1.7-17.1 4.8-22.1 3.2-5 7.9-7.5 14.2-7.5s10.8 2.6 14.1 7.6zm211.6 187.4c-1.7.8-3.4 1.3-4.7.9l-.6.8 6.9 5.2.6-.8c-.7-1.1-.7-2.9-.4-4.8.3 2.5 2.5 4.4 5.1 4.1 2.5-.3 4.4-2.5 4.1-5.1-.1-1.3-.8-2.4-1.8-3.2-.1-.1-.2-.1-.2-.2 2.2-1.3 3-4.1 1.7-6.3-.3-.6-.7-1-1.2-1.4s-1-.6-1.6-.8c-2.5-.6-5 .9-5.6 3.3-.1-.1-.1-.1-.2-.2-1-.8-2.3-1.1-3.5-.9-2.5.4-4.2 2.8-3.8 5.3s2.7 4.6 5.2 4.1zm-117.7 118.1c-1.5 0-2.7 1.2-2.7 2.7s1.2 2.7 2.7 2.7 2.7-1.2 2.7-2.7-1.3-2.7-2.7-2.7zm47.9 5.3c1.5 0 2.7-1.2 2.7-2.7s-1.2-2.7-2.7-2.7-2.7 1.2-2.7 2.7 1.2 2.7 2.7 2.7zm51-137.6c-1.7.8-3.4 1.3-4.7.9l-.6.8 6.9 5.2.6-.8c-.7-1.1-.7-2.9-.4-4.8.3 2.5 2.5 4.4 5.1 4.1 2.5-.3 4.3-2.5 4.1-5.1-.1-1.3-.8-2.4-1.8-3.2-.1-.1-.1-.1-.2-.2 2.2-1.3 3-4.1 1.7-6.3-.3-.6-.7-1-1.2-1.4s-1-.6-1.6-.8c-2.5-.6-5 .9-5.6 3.3-.1-.1-.1-.1-.2-.2-1-.8-2.3-1.1-3.5-.9-2.5.4-4.2 2.8-3.8 5.3.3 2.9 2.7 4.6 5.2 4.1zm89.8-201.4v462c0 13.8-11.2 25-25 25h-320c-13.8 0-25-11.2-25-25v-462c0-13.8 11.2-25 25-25h320c13.8 0 25 11.2 25 25zm-136.1 137.2 89.1 69.8c.4-.4.8-.9 1.2-1.4 8.3-11.1-5.2-35.3-30.2-54.1-24.8-18.6-51.6-25-60.1-14.3zm-41.7 27.2 110.8 81.1c1.5-2.5 3.2-5 5-7.3l-109.2-82zm80.2 115.1c0-14.5 3.8-28.8 10.1-40.9l-4.4-3.3c-6.6 12.8-11 28.8-11 44.2 0 10.1 1.6 19.9 4.6 29h5.6c-3.1-9-4.9-18.8-4.9-29zm5.3 0c0 10.2 1.9 20 5.3 29h5.7c-3.7-9-5.7-18.8-5.7-29 0-12.3 2.9-24 8.1-34.4l-4.3-3.2c-5.8 11.3-9.1 24-9.1 37.6zm16.8 29h5.9c-4.3-8.8-6.7-18.6-6.7-29s2.5-20.4 6.8-29.3l-4.4-3.2c-5 9.8-7.8 20.8-7.8 32.5.1 10.3 2.3 20.2 6.2 29zm-71.5-22.6-11-8.2-6.1 4.3-6.1-4.3-11.1 8.2zm-30 5.3c2.8 2.5 5.7 5.7 12.9 5.7 7.1 0 10.1-3.2 12.9-5.7zm43.8-43.2c6.2-1.1 8.3-5 8.7-6h-12.3v-5h6.6c4.1 1.6 5.8 4.1 6.2 4.8h10.5c-13.1-20.8-46-14.5-46-14.5 8.4 7.2 10 20.7 10 20.7zm-25.9-26c.3-.1 29.6-5.7 44.2 10 .5.6 1.2.9 2 .9.6 0 1.3-.2 1.8-.7 1.1-1 1.1-2.7.1-3.8-16.6-18-47.9-11.9-49.2-11.6-1.5.3-2.4 1.7-2.1 3.1.3 1.5 1.7 2.4 3.2 2.1zm15.8 47.7c0 9.7 7.9 17.6 17.6 17.6s17.6-7.9 17.6-17.6-7.9-17.6-17.6-17.6-17.6 7.9-17.6 17.6zm-44.1-93.5c3.8-1 7.4-2.4 10.9-4.1l-4.6-3.5zm-10.3 12.6c11-.9 21.3-4.3 30.4-9.6l-4.6-3.5c-6.4 3.5-13.4 5.9-20.9 7.2zm-8.8 10.8c1 0 1.9.1 2.9.1 16.7 0 32.3-5 45.3-13.6l-4.5-3.5c-11.5 7.2-24.9 11.4-39.4 11.7zm-8.2 10.1c3.6.4 7.3.7 11.1.7 20.2 0 38.9-6.4 54.2-17.4l-4.5-3.4c-14.1 9.8-31.3 15.5-49.7 15.5-2.4 0-4.8-.1-7.1-.3zm-3.4 58.4c0 11.4 0 30 11.2 48.9-5.2 4.9-8.4 11.7-8.4 19.4 0 14.7 11.9 26.6 26.6 26.6 10.5 0 19.6-6.1 23.9-15 4.3 8.9 13.4 15 23.9 15 14.7 0 26.6-11.9 26.6-26.6s-11.9-26.6-26.6-26.6c-.9 0-1.8 0-2.7.1v-3.9c0-1.5-1.2-2.7-2.7-2.7s-2.7 1.2-2.7 2.7v30.4c0 4.4 3.6 8 8 8s8-3.6 8-8-3.6-8-8-8c-.9 0-1.8.2-2.7.5v-3.9c.9-.2 1.8-.3 2.7-.3 6.4 0 11.7 5.2 11.7 11.7s-5.3 11.7-11.7 11.7-11.7-5.3-11.7-11.7v-30.4c0-1.5-1.2-2.7-2.7-2.7s-2.7 1.2-2.7 2.7v30.4c0 9.4 7.6 17 17 17s17-7.6 17-17-7.6-17-17-17c-.9 0-1.8.1-2.7.2v-4.3c.9-.1 1.8-.2 2.7-.2 11.7 0 21.3 9.5 21.3 21.3s-9.5 21.3-21.3 21.3-21.2-9.5-21.3-21.2v-30.5c0-1.5-1.2-2.7-2.7-2.7s-2.7 1.2-2.7 2.7v30.5c-.1 11.7-9.6 21.2-21.3 21.2s-21.3-9.5-21.3-21.3 9.6-21.3 21.3-21.3c.9 0 1.8.1 2.7.2v4.3c-.9-.1-1.8-.2-2.7-.2-9.4 0-17 7.6-17 17s7.6 17 17 17 17-7.6 17-17v-30.4c0-1.5-1.2-2.7-2.7-2.7s-2.7 1.2-2.7 2.7v30.4c0 6.5-5.3 11.7-11.7 11.7s-11.7-5.3-11.7-11.7 5.2-11.7 11.7-11.7c.9 0 1.8.1 2.7.3v3.9c-.8-.3-1.7-.5-2.7-.5-4.4 0-8 3.6-8 8s3.6 8 8 8 8-3.6 8-8v-30.4c0-1.5-1.2-2.7-2.7-2.7s-2.7 1.2-2.7 2.7v3.9c-.9-.1-1.8-.1-2.7-.1-5.1 0-9.9 1.5-14 4-5.1-8.7-7.6-17.3-8.9-25.1-1.3-7.9-1.3-14.9-1.3-20.5 0-12.3 4.6-38.5 15.6-45.2 4.2-2.6 9.5-2.8 14.3-.5 3.5 1.6 6.2 4.4 7.7 7.7-5.9-4-14.1-4.9-19-3.4-2.9.9-7 5-7.8 9.9-.9 5.5 2.4 11.5 2.4 11.5h16.2c6.2-1.1 8.3-5 8.7-6h-12.3v-5h6.6c3.6 1.4 5.4 3.5 6 4.5-.7 4.2-2.2 8.2-3.6 11.9-1.6 4.1-2.9 6.6-2.9 9.7 0 4.1 1.9 6 3.4 7 3.5 2.1 8.4.9 11-.1 3.2 3 8.9 6 14 1.8 3.4-2.8 3.2-6.6 2.6-8.4-.5-1.4-2-2.1-3.4-1.6s-2.1 2-1.6 3.4c.1.3.3 1.5-1 2.6-3.4 2.8-7.7-2.3-7.9-2.5-.8-.9-2.1-1.2-3.2-.7-1.9.9-6.1 2.2-7.7 1.2-.6-.4-.9-1.2-.9-2.5 0-2.1 1.2-4.3 2.5-7.7 2.4-6.2 5.3-13.8 4.1-22.2-1-6.7-5.3-12.5-11.8-15.6-6.4-3-13.7-2.7-19.4.8-6.9 4.2-11.4 13.5-14.2 23.4-1.9 9.3-3.1 19.6-3 25.9zm14.5-15.9v35.1c9.7 0 17.6-7.9 17.6-17.6s-7.9-17.5-17.6-17.5zm-59.5-95.2c-3.7-3.9-8.9-6.2-14.3-6.2-.4 0-.8 0-1.2 0 4.2-10-.4-21.5-10.4-25.7-2.5-1.1-5.1-1.6-7.6-1.6s-5.1.5-7.6 1.6c-10 4.2-14.7 15.7-10.4 25.7-.4 0-.8 0-1.2 0-5.4 0-10.6 2.2-14.3 6.2-7.4 7.9-7 20.3.9 27.7s20.3 7 27.7-.9c-3.8 7-8.1 13.3-13.6 15.2v4.5h37.1v-4.5c-5.4-1.9-9.8-8.2-13.6-15.2 7.4 7.9 19.8 8.3 27.7.9s8.2-19.8.8-27.7zm9.7-106.7c-.1-9.5-1.9-18-5.5-25.3-3.6-7.4-8.8-13-15.3-17-6.6-4-14.1-6-22.4-6s-16.1 2-22.7 6-11.7 9.7-15.2 17.1c-3.6 7.4-5.3 15.9-5.3 25.7v5.2c.1 9.4 2 17.8 5.7 25s8.7 12.8 15.3 16.7c6.5 3.9 14 5.8 22.4 5.8 2 0 4-.1 6-.4l21.3 17.1 14.8-12.5-16-12.6c5.4-4.1 9.5-9.6 12.6-16.4 3-6.8 4.5-14.8 4.5-24zm214.1 263.6h-78.9c5.7 5.8 9.3 13.7 9.3 22.5 0 17.6-14.3 31.9-31.9 31.9-9.2 0-17.9-4.1-23.9-10.9-6 6.8-14.7 10.9-23.9 10.9-17.6 0-31.9-14.3-31.9-31.9v30c0 50.1 40.6 90.7 90.7 90.7 25 0 47.7-10.1 64.1-26.5s26.6-39.1 26.6-64.1v-52.6zm0-61.2c-6.5 7.1-10.4 16.5-10.4 26.9s3.9 19.8 10.4 26.9v-8.8c-3.2-5.3-5.1-11.4-5.1-18s1.9-12.8 5.1-18zm0-14.2c-12.8 9.2-21 24.1-21 41.1 0 10.8 3.4 20.8 9.2 29h6.7c-6.6-7.9-10.6-18-10.6-29 0-13.7 6.1-26 15.7-34.3zm0-12.6c-18.9 10.4-31.7 30.5-31.7 53.6 0 10.5 2.7 20.4 7.3 29h6.2c-5.2-8.5-8.2-18.4-8.2-29 0-20 10.5-37.5 26.4-47.4zm0-6-112.1-87.9-16.4 20.1 108.8 82.7c4.9-5.5 10.5-9.9 17.2-13.6zm-69.3-32.6c-1.7.8-3.4 1.3-4.7.9l-.6.8 6.9 5.2.6-.8c-.7-1.1-.7-2.9-.4-4.8.3 2.5 2.5 4.4 5.1 4.1 2.5-.3 4.4-2.6 4.1-5.1-.1-1.3-.8-2.4-1.8-3.2-.1-.1-.2-.1-.2-.2 2.2-1.3 2.9-4.1 1.7-6.3-.3-.6-.7-1-1.2-1.4s-1-.6-1.6-.8c-2.5-.6-5 .9-5.6 3.3-.1-.1-.1-.1-.2-.2-1-.8-2.3-1.1-3.5-.9-2.5.4-4.2 2.8-3.8 5.3.3 2.9 2.7 4.5 5.2 4.1zm-18.8-14.2c-1.7.8-3.4 1.3-4.7.9l-.6.8 6.9 5.2.6-.8c-.7-1.1-.7-2.9-.4-4.8.3 2.5 2.5 4.4 5.1 4.1 2.5-.3 4.3-2.6 4.1-5.1-.1-1.3-.8-2.4-1.8-3.2-.1-.1-.2-.1-.2-.2 2.2-1.3 3-4.1 1.7-6.3-.3-.6-.7-1-1.2-1.4s-1-.6-1.6-.8c-2.5-.6-5 .9-5.6 3.3-.1-.1-.1-.1-.2-.2-1-.8-2.3-1.1-3.5-.9-2.5.4-4.2 2.8-3.8 5.3.3 2.9 2.7 4.6 5.2 4.1zm-24.2-17.9c.4 2.5 2.8 4.2 5.3 3.8-1.7.8-3.4 1.3-4.7.9l-.6.8 6.9 5.2.6-.8c-.8-1.1-.7-2.9-.4-4.8.3 2.5 2.6 4.3 5.1 4.1 2.5-.3 4.3-2.6 4.1-5.1-.1-1.3-.8-2.4-1.8-3.2-.1-.1-.2-.1-.2-.2 2.2-1.3 2.9-4.1 1.7-6.3-.3-.6-.7-1-1.2-1.4s-1-.6-1.6-.8c-2.5-.6-5 .9-5.6 3.3-.1-.1-.1-.1-.2-.2-1-.8-2.3-1.1-3.5-.9-2.6.7-4.3 3.1-3.9 5.6z" fill="url(#_82_00000082357035447897946860000012273606260598723519_)"/></g></svg>