<svg id="Layer_2_00000032624596549489554560000002113108685579952782_" enable-background="new 0 0 512 512" viewBox="0 0 512 512" xmlns="http://www.w3.org/2000/svg" xmlns:xlink="http://www.w3.org/1999/xlink"><linearGradient id="_75_00000124869240979142367430000006037059463483122824_" gradientTransform="matrix(1 0 0 -1 0 512)" gradientUnits="userSpaceOnUse" x1="42.821" x2="469.179" y1="469.179" y2="42.821"><stop offset="0" stop-color="#454545"/><stop offset="1"/></linearGradient><g id="Icon"><path id="_75" d="m416 0h-320c-13.8 0-25 11.2-25 25v462c0 13.8 11.2 25 25 25h320c13.8 0 25-11.2 25-25v-462c0-13.8-11.2-25-25-25zm-307.4 28.3h71.3v12.2l-37 86.7h-24.2l37-81.3h-47.2v-17.6zm68.4 181.3c-7.9 7.4-20.3 7-27.7-.9 3.8 7 8.1 13.3 13.6 15.2v4.5h-37.1v-4.4c5.4-1.9 9.8-8.2 13.6-15.2-7.4 7.9-19.8 8.3-27.7.9s-8.3-19.8-.9-27.7c3.7-3.9 8.9-6.2 14.3-6.2h1.2c-4.2-10 .5-21.5 10.4-25.7 2.5-1.1 5.1-1.6 7.6-1.6s5.1.5 7.6 1.6c10 4.2 14.7 15.7 10.4 25.7h1.2c5.4 0 10.6 2.2 14.3 6.2 7.5 7.8 7.1 20.2-.8 27.6zm211.9 217.8c-22.2 20.9-57.1 19.8-78-2.4 10.7 19.7 22.9 37.3 38.2 42.8v12.6h-104.4v-12.6c15.3-5.5 27.5-23.1 38.2-42.8-20.9 22.2-55.8 23.3-78 2.4s-23.3-55.8-2.4-78c10.4-11.1 24.9-17.4 40.1-17.4 1.2 0 2.3 0 3.5.1-11.9-28.1 1.3-60.5 29.4-72.3 7-3 14.3-4.4 21.4-4.4s14.4 1.4 21.4 4.4c28.1 11.9 41.2 44.2 29.3 72.3 1.1-.1 2.3-.1 3.5-.1 15.2 0 29.7 6.3 40.2 17.4 20.9 22.2 19.8 57.1-2.4 78z" fill="url(#_75_00000124869240979142367430000006037059463483122824_)"/></g></svg>