<svg id="Layer_2_00000132055592520163983350000018060933498741679276_" enable-background="new 0 0 512 512" viewBox="0 0 512 512" xmlns="http://www.w3.org/2000/svg" xmlns:xlink="http://www.w3.org/1999/xlink"><linearGradient id="_55_00000102506327765101601880000012186573197211496588_" gradientTransform="matrix(1 0 0 -1 0 512)" gradientUnits="userSpaceOnUse" x1="42.821" x2="469.179" y1="469.179" y2="42.821"><stop offset="0" stop-color="#fe5b42"/><stop offset="1" stop-color="#ba0000"/></linearGradient><g id="Icon"><path id="_55" d="m416 0h-320c-13.8 0-25 11.2-25 25v462c0 13.8 11.2 25 25 25h320c13.8 0 25-11.2 25-25v-462c0-13.8-11.2-25-25-25zm-262.4 88.3c-2.5-2.1-5.9-3.1-10.3-3.1h-11.1v-17h10.8c8.6 0 12.9-4.2 12.9-12.6 0-3.3-1-5.9-3.1-8-2-2.1-4.9-3.1-8.6-3.1-3 0-5.7.9-7.9 2.7s-3.4 4-3.4 6.6h-22.9c0-5.2 1.5-9.9 4.4-13.9 2.9-4.1 6.9-7.3 12.1-9.5 5.1-2.3 10.8-3.4 17-3.4 11 0 19.7 2.5 26 7.5s9.4 11.9 9.4 20.7c0 4.3-1.3 8.3-3.9 12.1s-6.4 6.8-11.4 9.2c5.3 1.9 9.4 4.8 12.4 8.7s4.5 8.7 4.5 14.4c0 8.8-3.4 15.9-10.2 21.2s-15.7 7.9-26.8 7.9c-6.5 0-12.5-1.2-18-3.7-5.6-2.5-9.8-5.9-12.6-10.3s-4.3-9.3-4.3-14.9h23c0 3 1.2 5.7 3.7 7.9s5.5 3.3 9 3.3c4 0 7.2-1.1 9.6-3.4 2.4-2.2 3.6-5.1 3.6-8.6-.2-5-1.4-8.6-3.9-10.7zm30.1 90.1c-1.5 5.4-6.4 10.9-11.7 15.9-2.5 2.4-5 4.6-7.4 6.9-7.4 7-14.8 14.3-20.3 23-5.5-8.7-12.9-16-20.3-23-2.4-2.2-4.8-4.5-7.4-6.9-5.3-5-10.2-10.5-11.7-15.9-.7-2.8-.8-5.7-.2-8.5 3.2-15.7 21-22.1 33.2-12.2 2.6 2.2 4.8 4.8 6.4 7.8 1.6-3 3.8-5.6 6.4-7.8 12.2-9.9 30-3.5 33.2 12.2.6 2.8.5 5.7-.2 8.5zm224 161c-4.2 15.2-18.1 30.6-33 44.7-7.1 6.8-14 13-20.7 19.3-21 19.6-41.6 40.3-57.1 64.6-15.6-24.4-36.2-45-57.2-64.6-6.7-6.3-13.6-12.6-20.7-19.3-14.9-14.1-28.8-29.5-33-44.7-2.1-7.9-2.3-16.1-.6-24 9-44.1 58.9-62.2 93.4-34.3 7.3 6.1 13.4 13.5 18 21.9 4.5-8.4 10.6-15.8 18-21.9 34.4-28 84.4-9.9 93.4 34.3 1.7 7.9 1.5 16.1-.5 24z" fill="url(#_55_00000102506327765101601880000012186573197211496588_)"/></g></svg>