<svg id="Layer_2_00000065059554368169783220000015975134809942161049_" enable-background="new 0 0 512 512" viewBox="0 0 512 512" xmlns="http://www.w3.org/2000/svg" xmlns:xlink="http://www.w3.org/1999/xlink"><linearGradient id="_92_00000051369619343205299290000012438788929169475476_" gradientTransform="matrix(1 0 0 -1 0 512)" gradientUnits="userSpaceOnUse" x1="42.821" x2="469.179" y1="469.179" y2="42.821"><stop offset="0" stop-color="#fe5b42"/><stop offset="1" stop-color="#ba0000"/></linearGradient><g id="Icon"><path id="_92" d="m137.3 64.5c-1.6-2.2-2.5-5-2.5-8.6s.8-6.4 2.4-8.4 3.9-3 7-3 5.6 1 7.2 3.1c1.6 2 2.4 4.8 2.4 8.4s-.8 6.4-2.3 8.6c-1.6 2.2-3.9 3.3-7 3.3s-5.6-1.2-7.2-3.4zm7.2 46.4c3.4 0 6.1-1.1 8.2-3.4s3.1-5.4 3.1-9.4-1.1-7.2-3.2-9.4-4.9-3.3-8.3-3.3-6.2 1.1-8.4 3.3c-2.1 2.2-3.2 5.3-3.2 9.4s1.1 7.1 3.2 9.3 5.1 3.5 8.6 3.5zm296.5-85.9v462c0 13.8-11.2 25-25 25h-320c-13.8 0-25-11.2-25-25v-462c0-13.8 11.2-25 25-25h320c13.8 0 25 11.2 25 25zm-315.6 51.2c-5 2.4-8.8 5.6-11.5 9.7s-4.1 8.8-4.1 14.1c0 8.8 3.1 15.8 9.3 20.9s14.7 7.7 25.4 7.7 19.1-2.6 25.2-7.7 9.1-12.1 9.1-20.9c0-5.5-1.4-10.2-4.1-14.2-2.8-4-6.5-7.2-11.2-9.5 4.2-2.2 7.4-5.2 9.8-8.8 2.4-3.7 3.6-7.9 3.6-12.7 0-8.6-2.9-15.4-8.8-20.4-5.8-5-13.8-7.5-23.8-7.5s-17.8 2.5-23.7 7.5c-5.8 5-8.8 11.8-8.8 20.4 0 4.8 1.2 9 3.6 12.7 2.5 3.6 5.8 6.5 10 8.7zm58.8 112.3c-16-10.3-29.6-23.9-39.9-39.9-10.3 16-23.9 29.6-39.9 39.9 15.7 10.7 29.3 24.2 39.9 40 10.7-15.8 24.2-29.4 39.9-40zm225 179.3c-45.1-29-83.4-67.3-112.4-112.4-29 45.1-67.3 83.4-112.4 112.4 44.3 30 82.4 68.2 112.3 112.5v.1s0 0 0-.1c30.1-44.3 68.3-82.5 112.5-112.5z" fill="url(#_92_00000051369619343205299290000012438788929169475476_)"/></g></svg>