<svg id="Layer_2_00000148625393305995607960000000350975401062062496_" enable-background="new 0 0 512 512" viewBox="0 0 512 512" xmlns="http://www.w3.org/2000/svg" xmlns:xlink="http://www.w3.org/1999/xlink"><linearGradient id="_73_00000169544706698938299250000015880841689157195431_" gradientTransform="matrix(1 0 0 -1 0 512)" gradientUnits="userSpaceOnUse" x1="42.821" x2="469.179" y1="469.179" y2="42.821"><stop offset="0" stop-color="#454545"/><stop offset="1"/></linearGradient><g id="Icon"><path id="_73" d="m416 0h-320c-13.8 0-25 11.2-25 25v462c0 13.8 11.2 25 25 25h320c13.8 0 25-11.2 25-25v-462c0-13.8-11.2-25-25-25zm-274.2 78c-5.4 0-9.3 1.7-12 5.2l-18.2-4.3 6-50.6h57.8v17.8h-39.2l-2.2 19.7c1.6-1 3.8-1.8 6.4-2.5s5.2-1.1 7.8-1.1c9.8 0 17.4 2.9 22.7 8.7s7.9 14 7.9 24.5c0 6.3-1.4 12.1-4.2 17.2s-6.8 9.1-11.9 11.9-11.2 4.1-18.1 4.1c-6.2 0-12-1.3-17.5-3.8s-9.7-6.1-12.8-10.5-4.6-9.5-4.6-15.1h23c.2 3.6 1.4 6.5 3.5 8.6s4.8 3.2 8.2 3.2c7.7 0 11.6-5.7 11.6-17.1-.1-10.6-4.8-15.9-14.2-15.9zm35.2 131.7c-7.9 7.4-20.3 7-27.7-.9 3.8 7 8.1 13.3 13.6 15.2v4.5h-37.1v-4.5c5.4-1.9 9.8-8.2 13.6-15.2-7.4 7.9-19.8 8.3-27.7.9s-8.3-19.8-.9-27.7c3.7-3.9 8.9-6.2 14.3-6.2h1.2c-4.2-10 .5-21.5 10.4-25.7 2.5-1.1 5.1-1.6 7.6-1.6s5.1.5 7.6 1.6c10 4.2 14.7 15.7 10.4 25.7h1.2c5.4 0 10.6 2.2 14.3 6.2 7.5 7.8 7.1 20.2-.8 27.7zm211.9 217.7c-22.2 20.9-57.1 19.8-78-2.4 10.7 19.7 22.9 37.3 38.2 42.8v12.6h-104.4v-12.6c15.3-5.5 27.5-23.1 38.2-42.8-20.9 22.2-55.8 23.3-78 2.4s-23.3-55.8-2.4-78c10.4-11.1 24.9-17.4 40.1-17.4 1.2 0 2.3 0 3.5.1-11.9-28.1 1.3-60.5 29.4-72.3 7-3 14.3-4.4 21.4-4.4s14.4 1.4 21.4 4.4c28.1 11.9 41.2 44.2 29.3 72.3 1.1-.1 2.3-.1 3.5-.1 15.2 0 29.7 6.3 40.2 17.4 20.9 22.2 19.8 57.1-2.4 78z" fill="url(#_73_00000169544706698938299250000015880841689157195431_)"/></g></svg>