<svg id="Layer_2_00000048487234900422528690000016601121041219206584_" enable-background="new 0 0 512 512" viewBox="0 0 512 512" xmlns="http://www.w3.org/2000/svg" xmlns:xlink="http://www.w3.org/1999/xlink"><linearGradient id="_93_00000001640886530071148500000017386731905259258548_" gradientTransform="matrix(1 0 0 -1 0 512)" gradientUnits="userSpaceOnUse" x1="42.821" x2="469.179" y1="469.179" y2="42.821"><stop offset="0" stop-color="#fe5b42"/><stop offset="1" stop-color="#ba0000"/></linearGradient><g id="Icon"><path id="_93" d="m136.1 74.5c-2.2-3.1-3.3-7.2-3.3-12.3 0-4.9 1.1-9.1 3.3-12.5s4.9-5.2 8.1-5.2c3.6 0 6.5 1.5 8.6 4.5s3.2 7.7 3.2 14.1v9.5c-2.2 4.3-5.8 6.5-10.7 6.5-4 0-7-1.5-9.2-4.6zm304.9-49.5v462c0 13.8-11.2 25-25 25h-320c-13.8 0-25-11.2-25-25v-462c0-13.8 11.2-25 25-25h320c13.8 0 25 11.2 25 25zm-331.2 37.2c0 10.2 2.6 18.3 7.9 24.3 5.3 6.1 12.4 9.1 21.3 9.1 6.1 0 11.6-2.2 16.6-6.7-1.8 13.4-10.5 20.4-26.3 21.2l-4.3.1v18.4h1.4c10.6 0 19.8-2.2 27.7-6.5s14-10.5 18.3-18.5 6.4-17.5 6.4-28.4v-8.8c-.1-7.8-1.6-14.8-4.6-20.8-2.9-6-7.1-10.7-12.3-13.9-5.3-3.3-11.2-4.9-17.7-4.9s-12.3 1.6-17.6 4.8-9.5 7.5-12.4 12.9-4.4 11.3-4.4 17.7zm74.4 126.3c-16-10.3-29.7-23.9-39.9-39.9-10.3 16-23.9 29.6-39.9 39.9 15.7 10.7 29.3 24.2 39.9 40 10.6-15.8 24.2-29.4 39.9-40zm225 179.3c-45.1-29-83.4-67.3-112.4-112.4-29 45.1-67.3 83.4-112.4 112.4 44.3 30 82.4 68.2 112.3 112.5v.1s0 0 0-.1c30.1-44.3 68.3-82.5 112.5-112.5z" fill="url(#_93_00000001640886530071148500000017386731905259258548_)"/></g></svg>